<mxfile host="app.diagrams.net" modified="2022-04-05T11:51:40.804Z" agent="5.0 (Windows NT 10.0; Win64; x64) AppleWebKit/537.36 (KHTML, like Gecko) Chrome/99.0.4844.84 Safari/537.36" etag="reYUEQy42p7ilLg2B6b3" version="17.4.0" type="github">
  <diagram id="HSHe59MAIpllIA50nlYI" name="Page-1">
    <mxGraphModel dx="3307" dy="1377" grid="0" gridSize="10" guides="1" tooltips="1" connect="1" arrows="1" fold="1" page="1" pageScale="1" pageWidth="827" pageHeight="1169" math="0" shadow="0">
      <root>
        <mxCell id="0" />
        <mxCell id="1" parent="0" />
        <mxCell id="jp5eAUPJtN0LZfD-OnUT-59" style="edgeStyle=orthogonalEdgeStyle;rounded=0;orthogonalLoop=1;jettySize=auto;html=1;endSize=5;startSize=5;endArrow=none;endFill=0;" edge="1" parent="1" source="jp5eAUPJtN0LZfD-OnUT-77" target="jp5eAUPJtN0LZfD-OnUT-53">
          <mxGeometry relative="1" as="geometry">
            <mxPoint x="599" y="330.1010101010101" as="sourcePoint" />
            <Array as="points">
              <mxPoint x="591" y="1393" />
            </Array>
          </mxGeometry>
        </mxCell>
        <mxCell id="jp5eAUPJtN0LZfD-OnUT-97" value="1" style="edgeLabel;html=1;align=center;verticalAlign=middle;resizable=0;points=[];" vertex="1" connectable="0" parent="jp5eAUPJtN0LZfD-OnUT-59">
          <mxGeometry x="0.6728" y="2" relative="1" as="geometry">
            <mxPoint x="1" y="-25" as="offset" />
          </mxGeometry>
        </mxCell>
        <mxCell id="jp5eAUPJtN0LZfD-OnUT-98" value="1" style="edgeLabel;html=1;align=center;verticalAlign=middle;resizable=0;points=[];" vertex="1" connectable="0" parent="jp5eAUPJtN0LZfD-OnUT-59">
          <mxGeometry x="-0.6459" relative="1" as="geometry">
            <mxPoint x="-31" as="offset" />
          </mxGeometry>
        </mxCell>
        <mxCell id="jp5eAUPJtN0LZfD-OnUT-21" value="&lt;b&gt;GenericActivity&lt;/b&gt;" style="swimlane;fontStyle=0;align=center;verticalAlign=middle;childLayout=stackLayout;horizontal=1;startSize=29;horizontalStack=0;resizeParent=1;resizeParentMax=0;resizeLast=0;collapsible=0;marginBottom=0;html=1;fontSize=12;labelPosition=center;verticalLabelPosition=middle;container=0;strokeColor=default;swimlaneLine=1;rounded=0;shadow=0;glass=0;sketch=0;perimeterSpacing=0;" vertex="1" parent="1">
          <mxGeometry x="343" y="687" width="173" height="369" as="geometry" />
        </mxCell>
        <mxCell id="jp5eAUPJtN0LZfD-OnUT-22" value="- id: Long" style="text;strokeColor=none;fillColor=none;align=left;verticalAlign=top;spacingLeft=4;spacingRight=4;overflow=hidden;rotatable=0;points=[[0,0.5],[1,0.5]];portConstraint=eastwest;container=0;fontStyle=0" vertex="1" parent="jp5eAUPJtN0LZfD-OnUT-21">
          <mxGeometry y="29" width="173" height="26" as="geometry" />
        </mxCell>
        <mxCell id="jp5eAUPJtN0LZfD-OnUT-23" value="- code : String" style="text;strokeColor=none;fillColor=none;align=left;verticalAlign=top;spacingLeft=4;spacingRight=4;overflow=hidden;rotatable=0;points=[[0,0.5],[1,0.5]];portConstraint=eastwest;container=0;fontStyle=0" vertex="1" parent="jp5eAUPJtN0LZfD-OnUT-21">
          <mxGeometry y="55" width="173" height="26" as="geometry" />
        </mxCell>
        <mxCell id="jp5eAUPJtN0LZfD-OnUT-24" value="- summary: String" style="text;strokeColor=none;fillColor=none;align=left;verticalAlign=top;spacingLeft=4;spacingRight=4;overflow=hidden;rotatable=0;points=[[0,0.5],[1,0.5]];portConstraint=eastwest;container=0;fontStyle=0" vertex="1" parent="jp5eAUPJtN0LZfD-OnUT-21">
          <mxGeometry y="81" width="173" height="26" as="geometry" />
        </mxCell>
        <mxCell id="jp5eAUPJtN0LZfD-OnUT-25" value="- description: String" style="text;strokeColor=none;fillColor=none;align=left;verticalAlign=top;spacingLeft=4;spacingRight=4;overflow=hidden;rotatable=0;points=[[0,0.5],[1,0.5]];portConstraint=eastwest;container=0;fontStyle=0" vertex="1" parent="jp5eAUPJtN0LZfD-OnUT-21">
          <mxGeometry y="107" width="173" height="26" as="geometry" />
        </mxCell>
        <mxCell id="jp5eAUPJtN0LZfD-OnUT-26" value="- plannedStartDate: LocalDate" style="text;strokeColor=none;fillColor=none;align=left;verticalAlign=top;spacingLeft=4;spacingRight=4;overflow=hidden;rotatable=0;points=[[0,0.5],[1,0.5]];portConstraint=eastwest;container=0;fontStyle=0" vertex="1" parent="jp5eAUPJtN0LZfD-OnUT-21">
          <mxGeometry y="133" width="173" height="26" as="geometry" />
        </mxCell>
        <mxCell id="jp5eAUPJtN0LZfD-OnUT-27" value="- plannedEndDate : LocalDate" style="text;strokeColor=none;fillColor=none;align=left;verticalAlign=top;spacingLeft=4;spacingRight=4;overflow=hidden;rotatable=0;points=[[0,0.5],[1,0.5]];portConstraint=eastwest;container=0;fontStyle=0" vertex="1" parent="jp5eAUPJtN0LZfD-OnUT-21">
          <mxGeometry y="159" width="173" height="26" as="geometry" />
        </mxCell>
        <mxCell id="jp5eAUPJtN0LZfD-OnUT-28" value="- startDate:&amp;nbsp;&lt;span&gt;LocalDate&lt;/span&gt;" style="text;whiteSpace=wrap;html=1;" vertex="1" parent="jp5eAUPJtN0LZfD-OnUT-21">
          <mxGeometry y="185" width="173" height="28" as="geometry" />
        </mxCell>
        <mxCell id="jp5eAUPJtN0LZfD-OnUT-29" value="- endDate : LocalDate" style="text;strokeColor=none;fillColor=none;align=left;verticalAlign=top;spacingLeft=4;spacingRight=4;overflow=hidden;rotatable=0;points=[[0,0.5],[1,0.5]];portConstraint=eastwest;container=0;fontStyle=0" vertex="1" parent="jp5eAUPJtN0LZfD-OnUT-21">
          <mxGeometry y="213" width="173" height="26" as="geometry" />
        </mxCell>
        <mxCell id="jp5eAUPJtN0LZfD-OnUT-30" value="- budget: Double" style="text;strokeColor=none;fillColor=none;align=left;verticalAlign=top;spacingLeft=4;spacingRight=4;overflow=hidden;rotatable=0;points=[[0,0.5],[1,0.5]];portConstraint=eastwest;container=0;fontStyle=0" vertex="1" parent="jp5eAUPJtN0LZfD-OnUT-21">
          <mxGeometry y="239" width="173" height="26" as="geometry" />
        </mxCell>
        <mxCell id="jp5eAUPJtN0LZfD-OnUT-31" value="- averageCost: Double" style="text;strokeColor=none;fillColor=none;align=left;verticalAlign=top;spacingLeft=4;spacingRight=4;overflow=hidden;rotatable=0;points=[[0,0.5],[1,0.5]];portConstraint=eastwest;container=0;fontStyle=0" vertex="1" parent="jp5eAUPJtN0LZfD-OnUT-21">
          <mxGeometry y="265" width="173" height="26" as="geometry" />
        </mxCell>
        <mxCell id="jp5eAUPJtN0LZfD-OnUT-32" value="- businessUnit: UUID" style="text;strokeColor=none;fillColor=none;align=left;verticalAlign=top;spacingLeft=4;spacingRight=4;overflow=hidden;rotatable=0;points=[[0,0.5],[1,0.5]];portConstraint=eastwest;container=0;fontStyle=0" vertex="1" parent="jp5eAUPJtN0LZfD-OnUT-21">
          <mxGeometry y="291" width="173" height="26" as="geometry" />
        </mxCell>
        <mxCell id="jp5eAUPJtN0LZfD-OnUT-40" value="- projectSheetFileName: String" style="text;strokeColor=none;fillColor=none;align=left;verticalAlign=top;spacingLeft=4;spacingRight=4;overflow=hidden;rotatable=0;points=[[0,0.5],[1,0.5]];portConstraint=eastwest;container=0;fontStyle=0" vertex="1" parent="jp5eAUPJtN0LZfD-OnUT-21">
          <mxGeometry y="317" width="173" height="26" as="geometry" />
        </mxCell>
        <mxCell id="jp5eAUPJtN0LZfD-OnUT-41" value="- boardTask: String" style="text;strokeColor=none;fillColor=none;align=left;verticalAlign=top;spacingLeft=4;spacingRight=4;overflow=hidden;rotatable=0;points=[[0,0.5],[1,0.5]];portConstraint=eastwest;container=0;fontStyle=0" vertex="1" parent="jp5eAUPJtN0LZfD-OnUT-21">
          <mxGeometry y="343" width="173" height="26" as="geometry" />
        </mxCell>
        <mxCell id="jp5eAUPJtN0LZfD-OnUT-42" style="edgeStyle=orthogonalEdgeStyle;rounded=0;orthogonalLoop=1;jettySize=auto;html=1;dashed=1;startSize=5;endSize=5;endArrow=block;endFill=0;" edge="1" parent="1" source="jp5eAUPJtN0LZfD-OnUT-43" target="jp5eAUPJtN0LZfD-OnUT-21">
          <mxGeometry relative="1" as="geometry">
            <Array as="points">
              <mxPoint x="240" y="1084" />
              <mxPoint x="430" y="1084" />
            </Array>
          </mxGeometry>
        </mxCell>
        <mxCell id="jp5eAUPJtN0LZfD-OnUT-43" value="&lt;b&gt;OtherActivity&lt;/b&gt;" style="swimlane;fontStyle=0;align=center;verticalAlign=middle;childLayout=stackLayout;horizontal=1;startSize=29;horizontalStack=0;resizeParent=1;resizeParentMax=0;resizeLast=0;collapsible=0;marginBottom=0;html=1;fontSize=12;labelPosition=center;verticalLabelPosition=middle;container=0;swimlaneLine=1;rounded=0;sketch=0;glass=0;" vertex="1" parent="1">
          <mxGeometry x="165" y="1121" width="150" height="81" as="geometry" />
        </mxCell>
        <mxCell id="jp5eAUPJtN0LZfD-OnUT-44" value="- requestor: UUID" style="text;strokeColor=none;fillColor=none;align=left;verticalAlign=top;spacingLeft=4;spacingRight=4;overflow=hidden;rotatable=0;points=[[0,0.5],[1,0.5]];portConstraint=eastwest;container=0;fontStyle=0" vertex="1" parent="jp5eAUPJtN0LZfD-OnUT-43">
          <mxGeometry y="29" width="150" height="26" as="geometry" />
        </mxCell>
        <mxCell id="jp5eAUPJtN0LZfD-OnUT-45" value="- boardTask: UUID" style="text;strokeColor=none;fillColor=none;align=left;verticalAlign=top;spacingLeft=4;spacingRight=4;overflow=hidden;rotatable=0;points=[[0,0.5],[1,0.5]];portConstraint=eastwest;container=0;fontStyle=0" vertex="1" parent="jp5eAUPJtN0LZfD-OnUT-43">
          <mxGeometry y="55" width="150" height="26" as="geometry" />
        </mxCell>
        <mxCell id="jp5eAUPJtN0LZfD-OnUT-46" style="edgeStyle=orthogonalEdgeStyle;rounded=0;orthogonalLoop=1;jettySize=auto;html=1;dashed=1;endArrow=block;endFill=0;startSize=5;endSize=5;startArrow=none;" edge="1" parent="1">
          <mxGeometry relative="1" as="geometry">
            <Array as="points">
              <mxPoint x="430" y="1081" />
              <mxPoint x="430" y="1081" />
            </Array>
            <mxPoint x="430.0038610038612" y="1118.5" as="sourcePoint" />
            <mxPoint x="430.0038610038612" y="1056" as="targetPoint" />
          </mxGeometry>
        </mxCell>
        <mxCell id="jp5eAUPJtN0LZfD-OnUT-47" value="&lt;span style=&quot;text-align: left&quot;&gt;PresalesActivity&lt;/span&gt;" style="swimlane;fontStyle=1;align=center;verticalAlign=middle;childLayout=stackLayout;horizontal=1;startSize=29;horizontalStack=0;resizeParent=1;resizeParentMax=0;resizeLast=0;collapsible=0;marginBottom=0;html=1;fontSize=12;labelPosition=center;verticalLabelPosition=middle;container=0;swimlaneLine=1;rounded=0;sketch=0;glass=0;" vertex="1" parent="1">
          <mxGeometry x="354" y="1118.5" width="150" height="133" as="geometry" />
        </mxCell>
        <mxCell id="jp5eAUPJtN0LZfD-OnUT-48" value="- crmDealId: UUID" style="text;strokeColor=none;fillColor=none;align=left;verticalAlign=top;spacingLeft=4;spacingRight=4;overflow=hidden;rotatable=0;points=[[0,0.5],[1,0.5]];portConstraint=eastwest;container=0;fontStyle=0" vertex="1" parent="jp5eAUPJtN0LZfD-OnUT-47">
          <mxGeometry y="29" width="150" height="26" as="geometry" />
        </mxCell>
        <mxCell id="jp5eAUPJtN0LZfD-OnUT-49" value="- clientId: UUID" style="text;strokeColor=none;fillColor=none;align=left;verticalAlign=top;spacingLeft=4;spacingRight=4;overflow=hidden;rotatable=0;points=[[0,0.5],[1,0.5]];portConstraint=eastwest;container=0;fontStyle=0" vertex="1" parent="jp5eAUPJtN0LZfD-OnUT-47">
          <mxGeometry y="55" width="150" height="26" as="geometry" />
        </mxCell>
        <mxCell id="jp5eAUPJtN0LZfD-OnUT-50" value="- requestor: UUID" style="text;strokeColor=none;fillColor=none;align=left;verticalAlign=top;spacingLeft=4;spacingRight=4;overflow=hidden;rotatable=0;points=[[0,0.5],[1,0.5]];portConstraint=eastwest;container=0;fontStyle=0" vertex="1" parent="jp5eAUPJtN0LZfD-OnUT-47">
          <mxGeometry y="81" width="150" height="26" as="geometry" />
        </mxCell>
        <mxCell id="jp5eAUPJtN0LZfD-OnUT-51" value="- salesInCharge: UUID" style="text;strokeColor=none;fillColor=none;align=left;verticalAlign=top;spacingLeft=4;spacingRight=4;overflow=hidden;rotatable=0;points=[[0,0.5],[1,0.5]];portConstraint=eastwest;container=0;fontStyle=0" vertex="1" parent="jp5eAUPJtN0LZfD-OnUT-47">
          <mxGeometry y="107" width="150" height="26" as="geometry" />
        </mxCell>
        <mxCell id="jp5eAUPJtN0LZfD-OnUT-52" style="edgeStyle=orthogonalEdgeStyle;rounded=0;orthogonalLoop=1;jettySize=auto;html=1;dashed=1;endArrow=block;endFill=0;startSize=5;endSize=5;" edge="1" parent="1">
          <mxGeometry relative="1" as="geometry">
            <Array as="points">
              <mxPoint x="622" y="1084" />
              <mxPoint x="430" y="1084" />
            </Array>
            <mxPoint x="622.0000000000002" y="1118.5" as="sourcePoint" />
            <mxPoint x="430" y="1056" as="targetPoint" />
          </mxGeometry>
        </mxCell>
        <mxCell id="jp5eAUPJtN0LZfD-OnUT-195" style="edgeStyle=orthogonalEdgeStyle;rounded=0;orthogonalLoop=1;jettySize=auto;html=1;endArrow=none;endFill=0;startSize=5;endSize=5;" edge="1" parent="1" source="jp5eAUPJtN0LZfD-OnUT-53" target="jp5eAUPJtN0LZfD-OnUT-186">
          <mxGeometry relative="1" as="geometry">
            <Array as="points">
              <mxPoint x="651" y="1335" />
              <mxPoint x="651" y="1335" />
            </Array>
          </mxGeometry>
        </mxCell>
        <mxCell id="jp5eAUPJtN0LZfD-OnUT-200" value="*" style="edgeLabel;html=1;align=center;verticalAlign=middle;resizable=0;points=[];" vertex="1" connectable="0" parent="jp5eAUPJtN0LZfD-OnUT-195">
          <mxGeometry x="0.9323" relative="1" as="geometry">
            <mxPoint y="1" as="offset" />
          </mxGeometry>
        </mxCell>
        <mxCell id="jp5eAUPJtN0LZfD-OnUT-201" value="1" style="edgeLabel;html=1;align=center;verticalAlign=middle;resizable=0;points=[];" vertex="1" connectable="0" parent="jp5eAUPJtN0LZfD-OnUT-195">
          <mxGeometry x="-0.9414" relative="1" as="geometry">
            <mxPoint x="-1" y="1" as="offset" />
          </mxGeometry>
        </mxCell>
        <mxCell id="jp5eAUPJtN0LZfD-OnUT-196" style="edgeStyle=orthogonalEdgeStyle;rounded=0;orthogonalLoop=1;jettySize=auto;html=1;endArrow=none;endFill=0;startSize=5;endSize=5;" edge="1" parent="1" source="jp5eAUPJtN0LZfD-OnUT-53" target="jp5eAUPJtN0LZfD-OnUT-177">
          <mxGeometry relative="1" as="geometry">
            <Array as="points">
              <mxPoint x="620" y="1581" />
              <mxPoint x="471" y="1581" />
            </Array>
          </mxGeometry>
        </mxCell>
        <mxCell id="jp5eAUPJtN0LZfD-OnUT-198" value="1" style="edgeLabel;html=1;align=center;verticalAlign=middle;resizable=0;points=[];" vertex="1" connectable="0" parent="jp5eAUPJtN0LZfD-OnUT-196">
          <mxGeometry x="-0.9538" y="1" relative="1" as="geometry">
            <mxPoint x="-2" as="offset" />
          </mxGeometry>
        </mxCell>
        <mxCell id="jp5eAUPJtN0LZfD-OnUT-199" value="*" style="edgeLabel;html=1;align=center;verticalAlign=middle;resizable=0;points=[];" vertex="1" connectable="0" parent="jp5eAUPJtN0LZfD-OnUT-196">
          <mxGeometry x="0.9793" relative="1" as="geometry">
            <mxPoint y="-4" as="offset" />
          </mxGeometry>
        </mxCell>
        <mxCell id="jp5eAUPJtN0LZfD-OnUT-77" value="&lt;b&gt;InternalOrder&lt;/b&gt;" style="swimlane;fontStyle=0;align=center;verticalAlign=middle;childLayout=stackLayout;horizontal=1;startSize=29;horizontalStack=0;resizeParent=1;resizeParentMax=0;resizeLast=0;collapsible=0;marginBottom=0;html=1;fontSize=12;labelPosition=center;verticalLabelPosition=middle;container=0;strokeColor=default;swimlaneLine=1;rounded=0;shadow=0;glass=0;sketch=0;perimeterSpacing=0;" vertex="1" parent="1">
          <mxGeometry x="354" y="1329" width="150" height="211" as="geometry" />
        </mxCell>
        <mxCell id="jp5eAUPJtN0LZfD-OnUT-78" value="- id: Long" style="text;strokeColor=none;fillColor=none;align=left;verticalAlign=top;spacingLeft=4;spacingRight=4;overflow=hidden;rotatable=0;points=[[0,0.5],[1,0.5]];portConstraint=eastwest;container=0;fontStyle=0" vertex="1" parent="jp5eAUPJtN0LZfD-OnUT-77">
          <mxGeometry y="29" width="150" height="26" as="geometry" />
        </mxCell>
        <mxCell id="jp5eAUPJtN0LZfD-OnUT-79" value="- code : String" style="text;strokeColor=none;fillColor=none;align=left;verticalAlign=top;spacingLeft=4;spacingRight=4;overflow=hidden;rotatable=0;points=[[0,0.5],[1,0.5]];portConstraint=eastwest;container=0;fontStyle=0" vertex="1" parent="jp5eAUPJtN0LZfD-OnUT-77">
          <mxGeometry y="55" width="150" height="26" as="geometry" />
        </mxCell>
        <mxCell id="jp5eAUPJtN0LZfD-OnUT-80" value="- name: String" style="text;strokeColor=none;fillColor=none;align=left;verticalAlign=top;spacingLeft=4;spacingRight=4;overflow=hidden;rotatable=0;points=[[0,0.5],[1,0.5]];portConstraint=eastwest;container=0;fontStyle=0" vertex="1" parent="jp5eAUPJtN0LZfD-OnUT-77">
          <mxGeometry y="81" width="150" height="26" as="geometry" />
        </mxCell>
        <mxCell id="jp5eAUPJtN0LZfD-OnUT-81" value="- plannedStartDate : Date" style="text;strokeColor=none;fillColor=none;align=left;verticalAlign=top;spacingLeft=4;spacingRight=4;overflow=hidden;rotatable=0;points=[[0,0.5],[1,0.5]];portConstraint=eastwest;container=0;fontStyle=0" vertex="1" parent="jp5eAUPJtN0LZfD-OnUT-77">
          <mxGeometry y="107" width="150" height="26" as="geometry" />
        </mxCell>
        <mxCell id="jp5eAUPJtN0LZfD-OnUT-82" value="- plannedEndDate : Date" style="text;strokeColor=none;fillColor=none;align=left;verticalAlign=top;spacingLeft=4;spacingRight=4;overflow=hidden;rotatable=0;points=[[0,0.5],[1,0.5]];portConstraint=eastwest;container=0;fontStyle=0" vertex="1" parent="jp5eAUPJtN0LZfD-OnUT-77">
          <mxGeometry y="133" width="150" height="26" as="geometry" />
        </mxCell>
        <mxCell id="jp5eAUPJtN0LZfD-OnUT-83" value="- startDate : Date" style="text;strokeColor=none;fillColor=none;align=left;verticalAlign=top;spacingLeft=4;spacingRight=4;overflow=hidden;rotatable=0;points=[[0,0.5],[1,0.5]];portConstraint=eastwest;container=0;fontStyle=0" vertex="1" parent="jp5eAUPJtN0LZfD-OnUT-77">
          <mxGeometry y="159" width="150" height="26" as="geometry" />
        </mxCell>
        <mxCell id="jp5eAUPJtN0LZfD-OnUT-84" value="- endDate : Date" style="text;strokeColor=none;fillColor=none;align=left;verticalAlign=top;spacingLeft=4;spacingRight=4;overflow=hidden;rotatable=0;points=[[0,0.5],[1,0.5]];portConstraint=eastwest;container=0;fontStyle=0" vertex="1" parent="jp5eAUPJtN0LZfD-OnUT-77">
          <mxGeometry y="185" width="150" height="26" as="geometry" />
        </mxCell>
        <mxCell id="jp5eAUPJtN0LZfD-OnUT-85" value="&lt;div&gt;&lt;b&gt;ClientOrder&lt;/b&gt;&lt;/div&gt;" style="swimlane;fontStyle=0;align=center;verticalAlign=middle;childLayout=stackLayout;horizontal=1;startSize=29;horizontalStack=0;resizeParent=1;resizeParentMax=0;resizeLast=0;collapsible=0;marginBottom=0;html=1;fontSize=12;labelPosition=center;verticalLabelPosition=middle;container=0;strokeColor=default;swimlaneLine=1;rounded=0;shadow=0;glass=0;sketch=0;perimeterSpacing=0;" vertex="1" parent="1">
          <mxGeometry x="113" y="1329" width="150" height="239" as="geometry" />
        </mxCell>
        <mxCell id="jp5eAUPJtN0LZfD-OnUT-86" value="- id: Long" style="text;strokeColor=none;fillColor=none;align=left;verticalAlign=top;spacingLeft=4;spacingRight=4;overflow=hidden;rotatable=0;points=[[0,0.5],[1,0.5]];portConstraint=eastwest;container=0;fontStyle=0" vertex="1" parent="jp5eAUPJtN0LZfD-OnUT-85">
          <mxGeometry y="29" width="150" height="26" as="geometry" />
        </mxCell>
        <mxCell id="jp5eAUPJtN0LZfD-OnUT-87" value="- code : String" style="text;strokeColor=none;fillColor=none;align=left;verticalAlign=top;spacingLeft=4;spacingRight=4;overflow=hidden;rotatable=0;points=[[0,0.5],[1,0.5]];portConstraint=eastwest;container=0;fontStyle=0" vertex="1" parent="jp5eAUPJtN0LZfD-OnUT-85">
          <mxGeometry y="55" width="150" height="26" as="geometry" />
        </mxCell>
        <mxCell id="jp5eAUPJtN0LZfD-OnUT-88" value="- name: String" style="text;strokeColor=none;fillColor=none;align=left;verticalAlign=top;spacingLeft=4;spacingRight=4;overflow=hidden;rotatable=0;points=[[0,0.5],[1,0.5]];portConstraint=eastwest;container=0;fontStyle=0" vertex="1" parent="jp5eAUPJtN0LZfD-OnUT-85">
          <mxGeometry y="81" width="150" height="26" as="geometry" />
        </mxCell>
        <mxCell id="jp5eAUPJtN0LZfD-OnUT-89" value="- plannedStartDate : Date" style="text;strokeColor=none;fillColor=none;align=left;verticalAlign=top;spacingLeft=4;spacingRight=4;overflow=hidden;rotatable=0;points=[[0,0.5],[1,0.5]];portConstraint=eastwest;container=0;fontStyle=0" vertex="1" parent="jp5eAUPJtN0LZfD-OnUT-85">
          <mxGeometry y="107" width="150" height="26" as="geometry" />
        </mxCell>
        <mxCell id="jp5eAUPJtN0LZfD-OnUT-90" value="- plannedEndDate : Date" style="text;strokeColor=none;fillColor=none;align=left;verticalAlign=top;spacingLeft=4;spacingRight=4;overflow=hidden;rotatable=0;points=[[0,0.5],[1,0.5]];portConstraint=eastwest;container=0;fontStyle=0" vertex="1" parent="jp5eAUPJtN0LZfD-OnUT-85">
          <mxGeometry y="133" width="150" height="26" as="geometry" />
        </mxCell>
        <mxCell id="jp5eAUPJtN0LZfD-OnUT-91" value="- startDate : Date" style="text;strokeColor=none;fillColor=none;align=left;verticalAlign=top;spacingLeft=4;spacingRight=4;overflow=hidden;rotatable=0;points=[[0,0.5],[1,0.5]];portConstraint=eastwest;container=0;fontStyle=0" vertex="1" parent="jp5eAUPJtN0LZfD-OnUT-85">
          <mxGeometry y="159" width="150" height="26" as="geometry" />
        </mxCell>
        <mxCell id="jp5eAUPJtN0LZfD-OnUT-92" value="- endDate : Date" style="text;strokeColor=none;fillColor=none;align=left;verticalAlign=top;spacingLeft=4;spacingRight=4;overflow=hidden;rotatable=0;points=[[0,0.5],[1,0.5]];portConstraint=eastwest;container=0;fontStyle=0" vertex="1" parent="jp5eAUPJtN0LZfD-OnUT-85">
          <mxGeometry y="185" width="150" height="26" as="geometry" />
        </mxCell>
        <mxCell id="jp5eAUPJtN0LZfD-OnUT-93" value="- stakeholderList : UUID" style="text;whiteSpace=wrap;html=1;" vertex="1" parent="jp5eAUPJtN0LZfD-OnUT-85">
          <mxGeometry y="211" width="150" height="28" as="geometry" />
        </mxCell>
        <mxCell id="jp5eAUPJtN0LZfD-OnUT-94" style="edgeStyle=orthogonalEdgeStyle;rounded=0;orthogonalLoop=1;jettySize=auto;html=1;startSize=4;endSize=4;endArrow=none;endFill=0;fontStyle=0" edge="1" parent="1" source="jp5eAUPJtN0LZfD-OnUT-85" target="jp5eAUPJtN0LZfD-OnUT-77">
          <mxGeometry relative="1" as="geometry">
            <Array as="points">
              <mxPoint x="301" y="1392" />
              <mxPoint x="301" y="1392" />
            </Array>
          </mxGeometry>
        </mxCell>
        <mxCell id="jp5eAUPJtN0LZfD-OnUT-95" value="*" style="edgeLabel;html=1;align=center;verticalAlign=middle;resizable=0;points=[];fontStyle=0" vertex="1" connectable="0" parent="jp5eAUPJtN0LZfD-OnUT-94">
          <mxGeometry x="0.787" relative="1" as="geometry">
            <mxPoint as="offset" />
          </mxGeometry>
        </mxCell>
        <mxCell id="jp5eAUPJtN0LZfD-OnUT-96" value="1" style="edgeLabel;html=1;align=center;verticalAlign=middle;resizable=0;points=[];fontStyle=0" vertex="1" connectable="0" parent="jp5eAUPJtN0LZfD-OnUT-94">
          <mxGeometry x="-0.7797" y="1" relative="1" as="geometry">
            <mxPoint as="offset" />
          </mxGeometry>
        </mxCell>
        <mxCell id="jp5eAUPJtN0LZfD-OnUT-138" style="edgeStyle=orthogonalEdgeStyle;rounded=0;orthogonalLoop=1;jettySize=auto;html=1;endArrow=none;endFill=0;startSize=5;endSize=5;" edge="1" parent="1" source="jp5eAUPJtN0LZfD-OnUT-99" target="jp5eAUPJtN0LZfD-OnUT-53">
          <mxGeometry relative="1" as="geometry">
            <Array as="points">
              <mxPoint x="567" y="1287" />
            </Array>
          </mxGeometry>
        </mxCell>
        <mxCell id="jp5eAUPJtN0LZfD-OnUT-139" value="*" style="edgeLabel;html=1;align=center;verticalAlign=middle;resizable=0;points=[];" vertex="1" connectable="0" parent="jp5eAUPJtN0LZfD-OnUT-138">
          <mxGeometry x="0.9225" y="-2" relative="1" as="geometry">
            <mxPoint x="-2" y="-15" as="offset" />
          </mxGeometry>
        </mxCell>
        <mxCell id="jp5eAUPJtN0LZfD-OnUT-140" value="1" style="edgeLabel;html=1;align=center;verticalAlign=middle;resizable=0;points=[];" vertex="1" connectable="0" parent="jp5eAUPJtN0LZfD-OnUT-138">
          <mxGeometry x="-0.9426" y="-1" relative="1" as="geometry">
            <mxPoint x="-3" as="offset" />
          </mxGeometry>
        </mxCell>
        <mxCell id="jp5eAUPJtN0LZfD-OnUT-142" value="Lead" style="edgeLabel;html=1;align=center;verticalAlign=middle;resizable=0;points=[];" vertex="1" connectable="0" parent="jp5eAUPJtN0LZfD-OnUT-138">
          <mxGeometry x="0.0414" y="-2" relative="1" as="geometry">
            <mxPoint y="-1" as="offset" />
          </mxGeometry>
        </mxCell>
        <mxCell id="jp5eAUPJtN0LZfD-OnUT-166" style="edgeStyle=orthogonalEdgeStyle;rounded=0;orthogonalLoop=1;jettySize=auto;html=1;endArrow=none;endFill=0;startSize=5;endSize=5;" edge="1" parent="1" source="jp5eAUPJtN0LZfD-OnUT-99" target="jp5eAUPJtN0LZfD-OnUT-143">
          <mxGeometry relative="1" as="geometry">
            <mxPoint x="55" y="755" as="targetPoint" />
            <Array as="points">
              <mxPoint x="91" y="1139" />
            </Array>
          </mxGeometry>
        </mxCell>
        <mxCell id="jp5eAUPJtN0LZfD-OnUT-170" value="1" style="edgeLabel;html=1;align=center;verticalAlign=middle;resizable=0;points=[];" vertex="1" connectable="0" parent="jp5eAUPJtN0LZfD-OnUT-166">
          <mxGeometry x="0.9769" relative="1" as="geometry">
            <mxPoint x="-1" y="4" as="offset" />
          </mxGeometry>
        </mxCell>
        <mxCell id="jp5eAUPJtN0LZfD-OnUT-172" value="1" style="edgeLabel;html=1;align=center;verticalAlign=middle;resizable=0;points=[];" vertex="1" connectable="0" parent="jp5eAUPJtN0LZfD-OnUT-166">
          <mxGeometry x="-0.9719" relative="1" as="geometry">
            <mxPoint as="offset" />
          </mxGeometry>
        </mxCell>
        <mxCell id="jp5eAUPJtN0LZfD-OnUT-175" value="create" style="edgeLabel;html=1;align=center;verticalAlign=middle;resizable=0;points=[];" vertex="1" connectable="0" parent="jp5eAUPJtN0LZfD-OnUT-166">
          <mxGeometry x="-0.7386" y="1" relative="1" as="geometry">
            <mxPoint x="78" y="-1" as="offset" />
          </mxGeometry>
        </mxCell>
        <mxCell id="jp5eAUPJtN0LZfD-OnUT-167" style="edgeStyle=orthogonalEdgeStyle;rounded=0;orthogonalLoop=1;jettySize=auto;html=1;endArrow=none;endFill=0;startSize=5;endSize=5;" edge="1" parent="1" source="jp5eAUPJtN0LZfD-OnUT-99" target="jp5eAUPJtN0LZfD-OnUT-143">
          <mxGeometry relative="1" as="geometry">
            <mxPoint x="55" y="521" as="targetPoint" />
            <Array as="points">
              <mxPoint x="60" y="1120" />
            </Array>
          </mxGeometry>
        </mxCell>
        <mxCell id="jp5eAUPJtN0LZfD-OnUT-171" value="1" style="edgeLabel;html=1;align=center;verticalAlign=middle;resizable=0;points=[];" vertex="1" connectable="0" parent="jp5eAUPJtN0LZfD-OnUT-167">
          <mxGeometry x="0.9832" relative="1" as="geometry">
            <mxPoint x="-1" y="6" as="offset" />
          </mxGeometry>
        </mxCell>
        <mxCell id="jp5eAUPJtN0LZfD-OnUT-173" value="1" style="edgeLabel;html=1;align=center;verticalAlign=middle;resizable=0;points=[];" vertex="1" connectable="0" parent="jp5eAUPJtN0LZfD-OnUT-167">
          <mxGeometry x="-0.9854" y="1" relative="1" as="geometry">
            <mxPoint x="3" as="offset" />
          </mxGeometry>
        </mxCell>
        <mxCell id="jp5eAUPJtN0LZfD-OnUT-176" value="work" style="edgeLabel;html=1;align=center;verticalAlign=middle;resizable=0;points=[];" vertex="1" connectable="0" parent="jp5eAUPJtN0LZfD-OnUT-167">
          <mxGeometry x="-0.8718" relative="1" as="geometry">
            <mxPoint x="103" as="offset" />
          </mxGeometry>
        </mxCell>
        <mxCell id="jp5eAUPJtN0LZfD-OnUT-99" value="&lt;b&gt;Employee&lt;/b&gt;" style="swimlane;fontStyle=0;align=center;verticalAlign=middle;childLayout=stackLayout;horizontal=1;startSize=29;horizontalStack=0;resizeParent=1;resizeParentMax=0;resizeLast=0;collapsible=0;marginBottom=0;html=1;fontSize=12;labelPosition=center;verticalLabelPosition=middle;container=0;strokeColor=default;swimlaneLine=1;rounded=0;shadow=0;glass=0;sketch=0;perimeterSpacing=0;" vertex="1" parent="1">
          <mxGeometry x="-264" y="1091" width="172" height="655" as="geometry" />
        </mxCell>
        <mxCell id="jp5eAUPJtN0LZfD-OnUT-100" value="- id: Long" style="text;strokeColor=none;fillColor=none;align=left;verticalAlign=top;spacingLeft=4;spacingRight=4;overflow=hidden;rotatable=0;points=[[0,0.5],[1,0.5]];portConstraint=eastwest;container=0;fontStyle=0" vertex="1" parent="jp5eAUPJtN0LZfD-OnUT-99">
          <mxGeometry y="29" width="172" height="26" as="geometry" />
        </mxCell>
        <mxCell id="jp5eAUPJtN0LZfD-OnUT-101" value="- firstName: String" style="text;strokeColor=none;fillColor=none;align=left;verticalAlign=top;spacingLeft=4;spacingRight=4;overflow=hidden;rotatable=0;points=[[0,0.5],[1,0.5]];portConstraint=eastwest;container=0;fontStyle=0" vertex="1" parent="jp5eAUPJtN0LZfD-OnUT-99">
          <mxGeometry y="55" width="172" height="26" as="geometry" />
        </mxCell>
        <mxCell id="jp5eAUPJtN0LZfD-OnUT-102" value="- lastName: String" style="text;strokeColor=none;fillColor=none;align=left;verticalAlign=top;spacingLeft=4;spacingRight=4;overflow=hidden;rotatable=0;points=[[0,0.5],[1,0.5]];portConstraint=eastwest;container=0;fontStyle=0" vertex="1" parent="jp5eAUPJtN0LZfD-OnUT-99">
          <mxGeometry y="81" width="172" height="26" as="geometry" />
        </mxCell>
        <mxCell id="jp5eAUPJtN0LZfD-OnUT-103" value="- displayName: String" style="text;strokeColor=none;fillColor=none;align=left;verticalAlign=top;spacingLeft=4;spacingRight=4;overflow=hidden;rotatable=0;points=[[0,0.5],[1,0.5]];portConstraint=eastwest;container=0;fontStyle=0" vertex="1" parent="jp5eAUPJtN0LZfD-OnUT-99">
          <mxGeometry y="107" width="172" height="26" as="geometry" />
        </mxCell>
        <mxCell id="jp5eAUPJtN0LZfD-OnUT-104" value="- jobTitle: String" style="text;strokeColor=none;fillColor=none;align=left;verticalAlign=top;spacingLeft=4;spacingRight=4;overflow=hidden;rotatable=0;points=[[0,0.5],[1,0.5]];portConstraint=eastwest;container=0;fontStyle=0" vertex="1" parent="jp5eAUPJtN0LZfD-OnUT-99">
          <mxGeometry y="133" width="172" height="26" as="geometry" />
        </mxCell>
        <mxCell id="jp5eAUPJtN0LZfD-OnUT-105" value="- birthDate: LocalDate" style="text;strokeColor=none;fillColor=none;align=left;verticalAlign=top;spacingLeft=4;spacingRight=4;overflow=hidden;rotatable=0;points=[[0,0.5],[1,0.5]];portConstraint=eastwest;container=0;fontStyle=0" vertex="1" parent="jp5eAUPJtN0LZfD-OnUT-99">
          <mxGeometry y="159" width="172" height="26" as="geometry" />
        </mxCell>
        <mxCell id="jp5eAUPJtN0LZfD-OnUT-106" value="- profilePicture: ImageBlob" style="text;whiteSpace=wrap;html=1;" vertex="1" parent="jp5eAUPJtN0LZfD-OnUT-99">
          <mxGeometry y="185" width="172" height="28" as="geometry" />
        </mxCell>
        <mxCell id="jp5eAUPJtN0LZfD-OnUT-107" value="- phoneNumber: String" style="text;strokeColor=none;fillColor=none;align=left;verticalAlign=top;spacingLeft=4;spacingRight=4;overflow=hidden;rotatable=0;points=[[0,0.5],[1,0.5]];portConstraint=eastwest;container=0;fontStyle=0" vertex="1" parent="jp5eAUPJtN0LZfD-OnUT-99">
          <mxGeometry y="213" width="172" height="26" as="geometry" />
        </mxCell>
        <mxCell id="jp5eAUPJtN0LZfD-OnUT-108" value="- secondPhoneNumber: String" style="text;strokeColor=none;fillColor=none;align=left;verticalAlign=top;spacingLeft=4;spacingRight=4;overflow=hidden;rotatable=0;points=[[0,0.5],[1,0.5]];portConstraint=eastwest;container=0;fontStyle=0" vertex="1" parent="jp5eAUPJtN0LZfD-OnUT-99">
          <mxGeometry y="239" width="172" height="26" as="geometry" />
        </mxCell>
        <mxCell id="jp5eAUPJtN0LZfD-OnUT-109" value="- email : String" style="text;strokeColor=none;fillColor=none;align=left;verticalAlign=top;spacingLeft=4;spacingRight=4;overflow=hidden;rotatable=0;points=[[0,0.5],[1,0.5]];portConstraint=eastwest;container=0;fontStyle=0" vertex="1" parent="jp5eAUPJtN0LZfD-OnUT-99">
          <mxGeometry y="265" width="172" height="26" as="geometry" />
        </mxCell>
        <mxCell id="jp5eAUPJtN0LZfD-OnUT-110" value="- personalEmail: String" style="text;strokeColor=none;fillColor=none;align=left;verticalAlign=top;spacingLeft=4;spacingRight=4;overflow=hidden;rotatable=0;points=[[0,0.5],[1,0.5]];portConstraint=eastwest;container=0;fontStyle=0" vertex="1" parent="jp5eAUPJtN0LZfD-OnUT-99">
          <mxGeometry y="291" width="172" height="26" as="geometry" />
        </mxCell>
        <mxCell id="jp5eAUPJtN0LZfD-OnUT-111" value="- preferredUsername: String" style="text;strokeColor=none;fillColor=none;align=left;verticalAlign=top;spacingLeft=4;spacingRight=4;overflow=hidden;rotatable=0;points=[[0,0.5],[1,0.5]];portConstraint=eastwest;container=0;fontStyle=0" vertex="1" parent="jp5eAUPJtN0LZfD-OnUT-99">
          <mxGeometry y="317" width="172" height="26" as="geometry" />
        </mxCell>
        <mxCell id="jp5eAUPJtN0LZfD-OnUT-112" value="- socialSecurityNumber: String" style="text;strokeColor=none;fillColor=none;align=left;verticalAlign=top;spacingLeft=4;spacingRight=4;overflow=hidden;rotatable=0;points=[[0,0.5],[1,0.5]];portConstraint=eastwest;container=0;fontStyle=0" vertex="1" parent="jp5eAUPJtN0LZfD-OnUT-99">
          <mxGeometry y="343" width="172" height="26" as="geometry" />
        </mxCell>
        <mxCell id="jp5eAUPJtN0LZfD-OnUT-113" value="- childrenNumber: Int" style="text;strokeColor=none;fillColor=none;align=left;verticalAlign=top;spacingLeft=4;spacingRight=4;overflow=hidden;rotatable=0;points=[[0,0.5],[1,0.5]];portConstraint=eastwest;container=0;fontStyle=0" vertex="1" parent="jp5eAUPJtN0LZfD-OnUT-99">
          <mxGeometry y="369" width="172" height="26" as="geometry" />
        </mxCell>
        <mxCell id="jp5eAUPJtN0LZfD-OnUT-114" value="- nationality: UUID" style="text;strokeColor=none;fillColor=none;align=left;verticalAlign=top;spacingLeft=4;spacingRight=4;overflow=hidden;rotatable=0;points=[[0,0.5],[1,0.5]];portConstraint=eastwest;container=0;fontStyle=0" vertex="1" parent="jp5eAUPJtN0LZfD-OnUT-99">
          <mxGeometry y="395" width="172" height="26" as="geometry" />
        </mxCell>
        <mxCell id="jp5eAUPJtN0LZfD-OnUT-115" value="- enabled: Boolean" style="text;strokeColor=none;fillColor=none;align=left;verticalAlign=top;spacingLeft=4;spacingRight=4;overflow=hidden;rotatable=0;points=[[0,0.5],[1,0.5]];portConstraint=eastwest;container=0;fontStyle=0" vertex="1" parent="jp5eAUPJtN0LZfD-OnUT-99">
          <mxGeometry y="421" width="172" height="26" as="geometry" />
        </mxCell>
        <mxCell id="jp5eAUPJtN0LZfD-OnUT-116" value="- bankAccount: UUID" style="text;strokeColor=none;fillColor=none;align=left;verticalAlign=top;spacingLeft=4;spacingRight=4;overflow=hidden;rotatable=0;points=[[0,0.5],[1,0.5]];portConstraint=eastwest;container=0;fontStyle=0" vertex="1" parent="jp5eAUPJtN0LZfD-OnUT-99">
          <mxGeometry y="447" width="172" height="26" as="geometry" />
        </mxCell>
        <mxCell id="jp5eAUPJtN0LZfD-OnUT-117" value="- hiringDate: LocalDate" style="text;strokeColor=none;fillColor=none;align=left;verticalAlign=top;spacingLeft=4;spacingRight=4;overflow=hidden;rotatable=0;points=[[0,0.5],[1,0.5]];portConstraint=eastwest;container=0;fontStyle=0" vertex="1" parent="jp5eAUPJtN0LZfD-OnUT-99">
          <mxGeometry y="473" width="172" height="26" as="geometry" />
        </mxCell>
        <mxCell id="jp5eAUPJtN0LZfD-OnUT-118" value="- resignationDate: LocalDate" style="text;strokeColor=none;fillColor=none;align=left;verticalAlign=top;spacingLeft=4;spacingRight=4;overflow=hidden;rotatable=0;points=[[0,0.5],[1,0.5]];portConstraint=eastwest;container=0;fontStyle=0" vertex="1" parent="jp5eAUPJtN0LZfD-OnUT-99">
          <mxGeometry y="499" width="172" height="26" as="geometry" />
        </mxCell>
        <mxCell id="jp5eAUPJtN0LZfD-OnUT-119" value="- totalYearsOfExperience: Float" style="text;strokeColor=none;fillColor=none;align=left;verticalAlign=top;spacingLeft=4;spacingRight=4;overflow=hidden;rotatable=0;points=[[0,0.5],[1,0.5]];portConstraint=eastwest;container=0;fontStyle=0" vertex="1" parent="jp5eAUPJtN0LZfD-OnUT-99">
          <mxGeometry y="525" width="172" height="26" as="geometry" />
        </mxCell>
        <mxCell id="jp5eAUPJtN0LZfD-OnUT-120" value="- totalYearsOfEducation: Float" style="text;strokeColor=none;fillColor=none;align=left;verticalAlign=top;spacingLeft=4;spacingRight=4;overflow=hidden;rotatable=0;points=[[0,0.5],[1,0.5]];portConstraint=eastwest;container=0;fontStyle=0" vertex="1" parent="jp5eAUPJtN0LZfD-OnUT-99">
          <mxGeometry y="551" width="172" height="26" as="geometry" />
        </mxCell>
        <mxCell id="jp5eAUPJtN0LZfD-OnUT-121" value="- permanentAddress: UUID" style="text;strokeColor=none;fillColor=none;align=left;verticalAlign=top;spacingLeft=4;spacingRight=4;overflow=hidden;rotatable=0;points=[[0,0.5],[1,0.5]];portConstraint=eastwest;container=0;fontStyle=0" vertex="1" parent="jp5eAUPJtN0LZfD-OnUT-99">
          <mxGeometry y="577" width="172" height="26" as="geometry" />
        </mxCell>
        <mxCell id="jp5eAUPJtN0LZfD-OnUT-122" value="- actualAddress: UUID" style="text;strokeColor=none;fillColor=none;align=left;verticalAlign=top;spacingLeft=4;spacingRight=4;overflow=hidden;rotatable=0;points=[[0,0.5],[1,0.5]];portConstraint=eastwest;container=0;fontStyle=0" vertex="1" parent="jp5eAUPJtN0LZfD-OnUT-99">
          <mxGeometry y="603" width="172" height="26" as="geometry" />
        </mxCell>
        <mxCell id="jp5eAUPJtN0LZfD-OnUT-123" value="- office: UUID" style="text;strokeColor=none;fillColor=none;align=left;verticalAlign=top;spacingLeft=4;spacingRight=4;overflow=hidden;rotatable=0;points=[[0,0.5],[1,0.5]];portConstraint=eastwest;container=0;fontStyle=0" vertex="1" parent="jp5eAUPJtN0LZfD-OnUT-99">
          <mxGeometry y="629" width="172" height="26" as="geometry" />
        </mxCell>
        <mxCell id="jp5eAUPJtN0LZfD-OnUT-124" style="edgeStyle=orthogonalEdgeStyle;rounded=0;orthogonalLoop=1;jettySize=auto;html=1;endArrow=none;endFill=0;endSize=5;startSize=5;" edge="1" parent="1" source="jp5eAUPJtN0LZfD-OnUT-130" target="jp5eAUPJtN0LZfD-OnUT-99">
          <mxGeometry relative="1" as="geometry">
            <Array as="points">
              <mxPoint x="-410" y="1142" />
            </Array>
          </mxGeometry>
        </mxCell>
        <mxCell id="jp5eAUPJtN0LZfD-OnUT-125" value="*" style="edgeLabel;html=1;align=center;verticalAlign=middle;resizable=0;points=[];" vertex="1" connectable="0" parent="jp5eAUPJtN0LZfD-OnUT-124">
          <mxGeometry x="-0.9254" relative="1" as="geometry">
            <mxPoint x="-1" y="2" as="offset" />
          </mxGeometry>
        </mxCell>
        <mxCell id="jp5eAUPJtN0LZfD-OnUT-126" value="1" style="edgeLabel;html=1;align=center;verticalAlign=middle;resizable=0;points=[];" vertex="1" connectable="0" parent="jp5eAUPJtN0LZfD-OnUT-124">
          <mxGeometry x="0.8843" relative="1" as="geometry">
            <mxPoint x="4" as="offset" />
          </mxGeometry>
        </mxCell>
        <mxCell id="jp5eAUPJtN0LZfD-OnUT-127" style="edgeStyle=orthogonalEdgeStyle;rounded=0;orthogonalLoop=1;jettySize=auto;html=1;endArrow=none;endFill=0;startSize=5;endSize=5;" edge="1" parent="1" source="jp5eAUPJtN0LZfD-OnUT-130" target="jp5eAUPJtN0LZfD-OnUT-134">
          <mxGeometry relative="1" as="geometry">
            <Array as="points">
              <mxPoint x="-410" y="954" />
            </Array>
          </mxGeometry>
        </mxCell>
        <mxCell id="jp5eAUPJtN0LZfD-OnUT-128" value="*" style="edgeLabel;html=1;align=center;verticalAlign=middle;resizable=0;points=[];" vertex="1" connectable="0" parent="jp5eAUPJtN0LZfD-OnUT-127">
          <mxGeometry x="-0.8389" y="-1" relative="1" as="geometry">
            <mxPoint x="-1" y="6" as="offset" />
          </mxGeometry>
        </mxCell>
        <mxCell id="jp5eAUPJtN0LZfD-OnUT-129" value="1" style="edgeLabel;html=1;align=center;verticalAlign=middle;resizable=0;points=[];" vertex="1" connectable="0" parent="jp5eAUPJtN0LZfD-OnUT-127">
          <mxGeometry x="0.8611" y="-1" relative="1" as="geometry">
            <mxPoint x="6" as="offset" />
          </mxGeometry>
        </mxCell>
        <mxCell id="jp5eAUPJtN0LZfD-OnUT-130" value="&lt;div style=&quot;text-align: left&quot;&gt;&lt;span&gt;DepartmentAssignment&lt;/span&gt;&lt;/div&gt;" style="swimlane;fontStyle=1;align=center;verticalAlign=middle;childLayout=stackLayout;horizontal=1;startSize=29;horizontalStack=0;resizeParent=1;resizeParentMax=0;resizeLast=0;collapsible=0;marginBottom=0;html=1;fontSize=12;labelPosition=center;verticalLabelPosition=middle;container=0;swimlaneLine=1;rounded=0;sketch=0;glass=0;" vertex="1" parent="1">
          <mxGeometry x="-485" y="989" width="149" height="107" as="geometry" />
        </mxCell>
        <mxCell id="jp5eAUPJtN0LZfD-OnUT-131" value="- id: UUID" style="text;strokeColor=none;fillColor=none;align=left;verticalAlign=top;spacingLeft=4;spacingRight=4;overflow=hidden;rotatable=0;points=[[0,0.5],[1,0.5]];portConstraint=eastwest;container=0;fontStyle=0" vertex="1" parent="jp5eAUPJtN0LZfD-OnUT-130">
          <mxGeometry y="29" width="149" height="26" as="geometry" />
        </mxCell>
        <mxCell id="jp5eAUPJtN0LZfD-OnUT-132" value="- startDate: LocalDate" style="text;strokeColor=none;fillColor=none;align=left;verticalAlign=top;spacingLeft=4;spacingRight=4;overflow=hidden;rotatable=0;points=[[0,0.5],[1,0.5]];portConstraint=eastwest;container=0;fontStyle=0" vertex="1" parent="jp5eAUPJtN0LZfD-OnUT-130">
          <mxGeometry y="55" width="149" height="26" as="geometry" />
        </mxCell>
        <mxCell id="jp5eAUPJtN0LZfD-OnUT-133" value="- endDate: LocalDate" style="text;strokeColor=none;fillColor=none;align=left;verticalAlign=top;spacingLeft=4;spacingRight=4;overflow=hidden;rotatable=0;points=[[0,0.5],[1,0.5]];portConstraint=eastwest;container=0;fontStyle=0" vertex="1" parent="jp5eAUPJtN0LZfD-OnUT-130">
          <mxGeometry y="81" width="149" height="26" as="geometry" />
        </mxCell>
        <mxCell id="jp5eAUPJtN0LZfD-OnUT-134" value="&lt;div style=&quot;text-align: left&quot;&gt;&lt;span&gt;Department&lt;/span&gt;&lt;/div&gt;" style="swimlane;fontStyle=1;align=center;verticalAlign=middle;childLayout=stackLayout;horizontal=1;startSize=29;horizontalStack=0;resizeParent=1;resizeParentMax=0;resizeLast=0;collapsible=0;marginBottom=0;html=1;fontSize=12;labelPosition=center;verticalLabelPosition=middle;container=0;swimlaneLine=1;rounded=0;sketch=0;glass=0;" vertex="1" parent="1">
          <mxGeometry x="-248" y="924" width="149" height="81" as="geometry" />
        </mxCell>
        <mxCell id="jp5eAUPJtN0LZfD-OnUT-135" value="- id: UUID" style="text;strokeColor=none;fillColor=none;align=left;verticalAlign=top;spacingLeft=4;spacingRight=4;overflow=hidden;rotatable=0;points=[[0,0.5],[1,0.5]];portConstraint=eastwest;container=0;fontStyle=0" vertex="1" parent="jp5eAUPJtN0LZfD-OnUT-134">
          <mxGeometry y="29" width="149" height="26" as="geometry" />
        </mxCell>
        <mxCell id="jp5eAUPJtN0LZfD-OnUT-136" value="- name: String" style="text;strokeColor=none;fillColor=none;align=left;verticalAlign=top;spacingLeft=4;spacingRight=4;overflow=hidden;rotatable=0;points=[[0,0.5],[1,0.5]];portConstraint=eastwest;container=0;fontStyle=0" vertex="1" parent="jp5eAUPJtN0LZfD-OnUT-134">
          <mxGeometry y="55" width="149" height="26" as="geometry" />
        </mxCell>
        <mxCell id="jp5eAUPJtN0LZfD-OnUT-251" style="edgeStyle=orthogonalEdgeStyle;rounded=0;orthogonalLoop=1;jettySize=auto;html=1;endArrow=none;endFill=0;startSize=5;endSize=5;" edge="1" parent="1" source="jp5eAUPJtN0LZfD-OnUT-143" target="jp5eAUPJtN0LZfD-OnUT-212">
          <mxGeometry relative="1" as="geometry">
            <Array as="points">
              <mxPoint x="-16" y="763" />
              <mxPoint x="-16" y="1864" />
            </Array>
          </mxGeometry>
        </mxCell>
        <mxCell id="jp5eAUPJtN0LZfD-OnUT-252" value="*" style="edgeLabel;html=1;align=center;verticalAlign=middle;resizable=0;points=[];" vertex="1" connectable="0" parent="jp5eAUPJtN0LZfD-OnUT-251">
          <mxGeometry x="0.9833" y="1" relative="1" as="geometry">
            <mxPoint as="offset" />
          </mxGeometry>
        </mxCell>
        <mxCell id="jp5eAUPJtN0LZfD-OnUT-253" value="1" style="edgeLabel;html=1;align=center;verticalAlign=middle;resizable=0;points=[];" vertex="1" connectable="0" parent="jp5eAUPJtN0LZfD-OnUT-251">
          <mxGeometry x="-0.9883" relative="1" as="geometry">
            <mxPoint as="offset" />
          </mxGeometry>
        </mxCell>
        <mxCell id="jp5eAUPJtN0LZfD-OnUT-143" value="&lt;b&gt;TimesheetEntry&lt;/b&gt;" style="swimlane;fontStyle=0;align=center;verticalAlign=middle;childLayout=stackLayout;horizontal=1;startSize=29;horizontalStack=0;resizeParent=1;resizeParentMax=0;resizeLast=0;collapsible=0;marginBottom=0;html=1;fontSize=12;labelPosition=center;verticalLabelPosition=middle;container=0;swimlaneLine=1;rounded=0;shadow=0;glass=0;sketch=0;perimeterSpacing=0;" vertex="1" parent="1">
          <mxGeometry x="19" y="522" width="151" height="481" as="geometry" />
        </mxCell>
        <mxCell id="jp5eAUPJtN0LZfD-OnUT-144" value="- id: Long" style="text;strokeColor=none;fillColor=none;align=left;verticalAlign=top;spacingLeft=4;spacingRight=4;overflow=hidden;rotatable=0;points=[[0,0.5],[1,0.5]];portConstraint=eastwest;container=0;fontStyle=0" vertex="1" parent="jp5eAUPJtN0LZfD-OnUT-143">
          <mxGeometry y="29" width="151" height="26" as="geometry" />
        </mxCell>
        <mxCell id="jp5eAUPJtN0LZfD-OnUT-145" value="- costCode: String " style="text;strokeColor=none;fillColor=none;align=left;verticalAlign=top;spacingLeft=4;spacingRight=4;overflow=hidden;rotatable=0;points=[[0,0.5],[1,0.5]];portConstraint=eastwest;container=0;fontStyle=0" vertex="1" parent="jp5eAUPJtN0LZfD-OnUT-143">
          <mxGeometry y="55" width="151" height="26" as="geometry" />
        </mxCell>
        <mxCell id="jp5eAUPJtN0LZfD-OnUT-146" value="- activity: UUID" style="text;strokeColor=none;fillColor=none;align=left;verticalAlign=top;spacingLeft=4;spacingRight=4;overflow=hidden;rotatable=0;points=[[0,0.5],[1,0.5]];portConstraint=eastwest;container=0;fontStyle=0" vertex="1" parent="jp5eAUPJtN0LZfD-OnUT-143">
          <mxGeometry y="81" width="151" height="26" as="geometry" />
        </mxCell>
        <mxCell id="jp5eAUPJtN0LZfD-OnUT-147" value="- activitySummary: UUID" style="text;strokeColor=none;fillColor=none;align=left;verticalAlign=top;spacingLeft=4;spacingRight=4;overflow=hidden;rotatable=0;points=[[0,0.5],[1,0.5]];portConstraint=eastwest;container=0;fontStyle=0" vertex="1" parent="jp5eAUPJtN0LZfD-OnUT-143">
          <mxGeometry y="107" width="151" height="26" as="geometry" />
        </mxCell>
        <mxCell id="jp5eAUPJtN0LZfD-OnUT-149" value="- businessUnitId: Long" style="text;strokeColor=none;fillColor=none;align=left;verticalAlign=top;spacingLeft=4;spacingRight=4;overflow=hidden;rotatable=0;points=[[0,0.5],[1,0.5]];portConstraint=eastwest;container=0;fontStyle=0" vertex="1" parent="jp5eAUPJtN0LZfD-OnUT-143">
          <mxGeometry y="133" width="151" height="26" as="geometry" />
        </mxCell>
        <mxCell id="jp5eAUPJtN0LZfD-OnUT-150" value="- summary: String " style="text;strokeColor=none;fillColor=none;align=left;verticalAlign=top;spacingLeft=4;spacingRight=4;overflow=hidden;rotatable=0;points=[[0,0.5],[1,0.5]];portConstraint=eastwest;container=0;fontStyle=0" vertex="1" parent="jp5eAUPJtN0LZfD-OnUT-143">
          <mxGeometry y="159" width="151" height="26" as="geometry" />
        </mxCell>
        <mxCell id="jp5eAUPJtN0LZfD-OnUT-151" value="- hours: Float" style="text;strokeColor=none;fillColor=none;align=left;verticalAlign=top;spacingLeft=4;spacingRight=4;overflow=hidden;rotatable=0;points=[[0,0.5],[1,0.5]];portConstraint=eastwest;container=0;fontStyle=0" vertex="1" parent="jp5eAUPJtN0LZfD-OnUT-143">
          <mxGeometry y="185" width="151" height="26" as="geometry" />
        </mxCell>
        <mxCell id="jp5eAUPJtN0LZfD-OnUT-152" value="- year: int" style="text;strokeColor=none;fillColor=none;align=left;verticalAlign=top;spacingLeft=4;spacingRight=4;overflow=hidden;rotatable=0;points=[[0,0.5],[1,0.5]];portConstraint=eastwest;container=0;fontStyle=0" vertex="1" parent="jp5eAUPJtN0LZfD-OnUT-143">
          <mxGeometry y="211" width="151" height="26" as="geometry" />
        </mxCell>
        <mxCell id="jp5eAUPJtN0LZfD-OnUT-153" value="- monthOfYear: int" style="text;strokeColor=none;fillColor=none;align=left;verticalAlign=top;spacingLeft=4;spacingRight=4;overflow=hidden;rotatable=0;points=[[0,0.5],[1,0.5]];portConstraint=eastwest;container=0;fontStyle=0" vertex="1" parent="jp5eAUPJtN0LZfD-OnUT-143">
          <mxGeometry y="237" width="151" height="26" as="geometry" />
        </mxCell>
        <mxCell id="jp5eAUPJtN0LZfD-OnUT-154" value="- weekOfYear: int" style="text;strokeColor=none;fillColor=none;align=left;verticalAlign=top;spacingLeft=4;spacingRight=4;overflow=hidden;rotatable=0;points=[[0,0.5],[1,0.5]];portConstraint=eastwest;container=0;fontStyle=0" vertex="1" parent="jp5eAUPJtN0LZfD-OnUT-143">
          <mxGeometry y="263" width="151" height="26" as="geometry" />
        </mxCell>
        <mxCell id="jp5eAUPJtN0LZfD-OnUT-155" value="- dayOfYear: int" style="text;strokeColor=none;fillColor=none;align=left;verticalAlign=top;spacingLeft=4;spacingRight=4;overflow=hidden;rotatable=0;points=[[0,0.5],[1,0.5]];portConstraint=eastwest;container=0;fontStyle=0" vertex="1" parent="jp5eAUPJtN0LZfD-OnUT-143">
          <mxGeometry y="289" width="151" height="26" as="geometry" />
        </mxCell>
        <mxCell id="jp5eAUPJtN0LZfD-OnUT-156" value="- manHourCost: Float" style="text;strokeColor=none;fillColor=none;align=left;verticalAlign=top;spacingLeft=4;spacingRight=4;overflow=hidden;rotatable=0;points=[[0,0.5],[1,0.5]];portConstraint=eastwest;container=0;fontStyle=0" vertex="1" parent="jp5eAUPJtN0LZfD-OnUT-143">
          <mxGeometry y="315" width="151" height="26" as="geometry" />
        </mxCell>
        <mxCell id="jp5eAUPJtN0LZfD-OnUT-158" value="&lt;span style=&quot;color: rgb(0 , 0 , 0) ; font-family: &amp;#34;helvetica&amp;#34; ; font-size: 12px ; font-style: normal ; font-weight: 400 ; letter-spacing: normal ; text-align: left ; text-indent: 0px ; text-transform: none ; word-spacing: 0px ; background-color: rgb(248 , 249 , 250) ; display: inline ; float: none&quot;&gt;-&amp;nbsp;&lt;span style=&quot;font-family: &amp;#34;helvetica&amp;#34;&quot;&gt;date&lt;/span&gt;: LocalDate&lt;/span&gt;" style="text;whiteSpace=wrap;html=1;" vertex="1" parent="jp5eAUPJtN0LZfD-OnUT-143">
          <mxGeometry y="341" width="151" height="28" as="geometry" />
        </mxCell>
        <mxCell id="jp5eAUPJtN0LZfD-OnUT-159" value="&lt;span style=&quot;color: rgb(0 , 0 , 0) ; font-family: &amp;#34;helvetica&amp;#34; ; font-size: 12px ; font-style: normal ; font-weight: 400 ; letter-spacing: normal ; text-align: left ; text-indent: 0px ; text-transform: none ; word-spacing: 0px ; background-color: rgb(248 , 249 , 250) ; display: inline ; float: none&quot;&gt;-&amp;nbsp;&lt;span style=&quot;font-family: &amp;#34;helvetica&amp;#34;&quot;&gt;validated&lt;/span&gt;: Boolean&lt;/span&gt;" style="text;whiteSpace=wrap;html=1;" vertex="1" parent="jp5eAUPJtN0LZfD-OnUT-143">
          <mxGeometry y="369" width="151" height="28" as="geometry" />
        </mxCell>
        <mxCell id="jp5eAUPJtN0LZfD-OnUT-160" value="&lt;span style=&quot;color: rgb(0 , 0 , 0) ; font-family: &amp;#34;helvetica&amp;#34; ; font-size: 12px ; font-style: normal ; font-weight: 400 ; letter-spacing: normal ; text-align: left ; text-indent: 0px ; text-transform: none ; word-spacing: 0px ; background-color: rgb(248 , 249 , 250) ; display: inline ; float: none&quot;&gt;-&amp;nbsp;&lt;span style=&quot;font-family: &amp;#34;helvetica&amp;#34;&quot;&gt;locked&lt;/span&gt;: Boolean&lt;/span&gt;" style="text;whiteSpace=wrap;html=1;" vertex="1" parent="jp5eAUPJtN0LZfD-OnUT-143">
          <mxGeometry y="397" width="151" height="28" as="geometry" />
        </mxCell>
        <mxCell id="jp5eAUPJtN0LZfD-OnUT-161" value="&lt;span style=&quot;text-align: left ; text-indent: 0px ; background-color: rgb(248 , 249 , 250) ; display: inline ; float: none&quot;&gt;&lt;font face=&quot;helvetica&quot;&gt;- validationDate: LocalDate&lt;/font&gt;&lt;/span&gt;" style="text;whiteSpace=wrap;html=1;" vertex="1" parent="jp5eAUPJtN0LZfD-OnUT-143">
          <mxGeometry y="425" width="151" height="28" as="geometry" />
        </mxCell>
        <mxCell id="jp5eAUPJtN0LZfD-OnUT-163" value="&lt;span style=&quot;text-align: left ; text-indent: 0px ; background-color: rgb(248 , 249 , 250) ; display: inline ; float: none&quot;&gt;&lt;font face=&quot;helvetica&quot;&gt;-&amp;nbsp;&lt;/font&gt;updateDate&lt;font face=&quot;helvetica&quot;&gt;: LocalDate&lt;/font&gt;&lt;/span&gt;" style="text;whiteSpace=wrap;html=1;" vertex="1" parent="jp5eAUPJtN0LZfD-OnUT-143">
          <mxGeometry y="453" width="151" height="28" as="geometry" />
        </mxCell>
        <mxCell id="jp5eAUPJtN0LZfD-OnUT-165" style="edgeStyle=orthogonalEdgeStyle;rounded=0;orthogonalLoop=1;jettySize=auto;html=1;endArrow=none;endFill=0;startSize=5;endSize=5;" edge="1" parent="1" source="jp5eAUPJtN0LZfD-OnUT-101" target="jp5eAUPJtN0LZfD-OnUT-143">
          <mxGeometry relative="1" as="geometry">
            <mxPoint x="55" y="893" as="targetPoint" />
            <Array as="points">
              <mxPoint x="124" y="1159" />
            </Array>
          </mxGeometry>
        </mxCell>
        <mxCell id="jp5eAUPJtN0LZfD-OnUT-168" value="1" style="edgeLabel;html=1;align=center;verticalAlign=middle;resizable=0;points=[];" vertex="1" connectable="0" parent="jp5eAUPJtN0LZfD-OnUT-165">
          <mxGeometry x="-0.8912" y="1" relative="1" as="geometry">
            <mxPoint x="-15" as="offset" />
          </mxGeometry>
        </mxCell>
        <mxCell id="jp5eAUPJtN0LZfD-OnUT-169" value="1" style="edgeLabel;html=1;align=center;verticalAlign=middle;resizable=0;points=[];" vertex="1" connectable="0" parent="jp5eAUPJtN0LZfD-OnUT-165">
          <mxGeometry x="0.9742" y="-1" relative="1" as="geometry">
            <mxPoint x="-2" y="3" as="offset" />
          </mxGeometry>
        </mxCell>
        <mxCell id="jp5eAUPJtN0LZfD-OnUT-174" value="update" style="edgeLabel;html=1;align=center;verticalAlign=middle;resizable=0;points=[];" vertex="1" connectable="0" parent="jp5eAUPJtN0LZfD-OnUT-165">
          <mxGeometry x="-0.509" relative="1" as="geometry">
            <mxPoint x="30" y="-1" as="offset" />
          </mxGeometry>
        </mxCell>
        <mxCell id="jp5eAUPJtN0LZfD-OnUT-177" value="&lt;b&gt;ChangeLog&lt;/b&gt;" style="swimlane;fontStyle=0;align=center;verticalAlign=middle;childLayout=stackLayout;horizontal=1;startSize=29;horizontalStack=0;resizeParent=1;resizeParentMax=0;resizeLast=0;collapsible=0;marginBottom=0;html=1;fontSize=12;labelPosition=center;verticalLabelPosition=middle;container=0;strokeColor=default;swimlaneLine=1;rounded=0;shadow=0;glass=0;sketch=0;perimeterSpacing=0;" vertex="1" parent="1">
          <mxGeometry x="411" y="1611" width="120" height="243" as="geometry" />
        </mxCell>
        <mxCell id="jp5eAUPJtN0LZfD-OnUT-178" value="- id: Long" style="text;strokeColor=none;fillColor=none;align=left;verticalAlign=top;spacingLeft=4;spacingRight=4;overflow=hidden;rotatable=0;points=[[0,0.5],[1,0.5]];portConstraint=eastwest;container=0;fontStyle=0" vertex="1" parent="jp5eAUPJtN0LZfD-OnUT-177">
          <mxGeometry y="29" width="120" height="26" as="geometry" />
        </mxCell>
        <mxCell id="jp5eAUPJtN0LZfD-OnUT-179" value="- code: String " style="text;strokeColor=none;fillColor=none;align=left;verticalAlign=top;spacingLeft=4;spacingRight=4;overflow=hidden;rotatable=0;points=[[0,0.5],[1,0.5]];portConstraint=eastwest;container=0;fontStyle=0" vertex="1" parent="jp5eAUPJtN0LZfD-OnUT-177">
          <mxGeometry y="55" width="120" height="26" as="geometry" />
        </mxCell>
        <mxCell id="jp5eAUPJtN0LZfD-OnUT-180" value="- reporterId: uuid" style="text;strokeColor=none;fillColor=none;align=left;verticalAlign=top;spacingLeft=4;spacingRight=4;overflow=hidden;rotatable=0;points=[[0,0.5],[1,0.5]];portConstraint=eastwest;container=0;fontStyle=0" vertex="1" parent="jp5eAUPJtN0LZfD-OnUT-177">
          <mxGeometry y="81" width="120" height="26" as="geometry" />
        </mxCell>
        <mxCell id="jp5eAUPJtN0LZfD-OnUT-181" value="- summary: String" style="text;strokeColor=none;fillColor=none;align=left;verticalAlign=top;spacingLeft=4;spacingRight=4;overflow=hidden;rotatable=0;points=[[0,0.5],[1,0.5]];portConstraint=eastwest;container=0;fontStyle=0" vertex="1" parent="jp5eAUPJtN0LZfD-OnUT-177">
          <mxGeometry y="107" width="120" height="26" as="geometry" />
        </mxCell>
        <mxCell id="jp5eAUPJtN0LZfD-OnUT-182" value="- description: String" style="text;strokeColor=none;fillColor=none;align=left;verticalAlign=top;spacingLeft=4;spacingRight=4;overflow=hidden;rotatable=0;points=[[0,0.5],[1,0.5]];portConstraint=eastwest;container=0;fontStyle=0" vertex="1" parent="jp5eAUPJtN0LZfD-OnUT-177">
          <mxGeometry y="133" width="120" height="26" as="geometry" />
        </mxCell>
        <mxCell id="jp5eAUPJtN0LZfD-OnUT-183" value="&lt;span style=&quot;color: rgb(0 , 0 , 0) ; font-family: &amp;#34;helvetica&amp;#34; ; font-size: 12px ; font-style: normal ; font-weight: 400 ; letter-spacing: normal ; text-align: left ; text-indent: 0px ; text-transform: none ; word-spacing: 0px ; background-color: rgb(248 , 249 , 250) ; display: inline ; float: none&quot;&gt;- changeCost: Double&lt;/span&gt;" style="text;whiteSpace=wrap;html=1;" vertex="1" parent="jp5eAUPJtN0LZfD-OnUT-177">
          <mxGeometry y="159" width="120" height="28" as="geometry" />
        </mxCell>
        <mxCell id="jp5eAUPJtN0LZfD-OnUT-184" value="&lt;span style=&quot;color: rgb(0 , 0 , 0) ; font-family: &amp;#34;helvetica&amp;#34; ; font-size: 12px ; font-style: normal ; font-weight: 400 ; letter-spacing: normal ; text-align: left ; text-indent: 0px ; text-transform: none ; word-spacing: 0px ; background-color: rgb(248 , 249 , 250) ; display: inline ; float: none&quot;&gt;- invoice: uuid&lt;/span&gt;" style="text;whiteSpace=wrap;html=1;" vertex="1" parent="jp5eAUPJtN0LZfD-OnUT-177">
          <mxGeometry y="187" width="120" height="28" as="geometry" />
        </mxCell>
        <mxCell id="jp5eAUPJtN0LZfD-OnUT-185" value="&lt;span style=&quot;color: rgb(0 , 0 , 0) ; font-family: &amp;#34;helvetica&amp;#34; ; font-size: 12px ; font-style: normal ; font-weight: 400 ; letter-spacing: normal ; text-align: left ; text-indent: 0px ; text-transform: none ; word-spacing: 0px ; background-color: rgb(248 , 249 , 250) ; display: inline ; float: none&quot;&gt;- dealId: uuid&lt;/span&gt;" style="text;whiteSpace=wrap;html=1;" vertex="1" parent="jp5eAUPJtN0LZfD-OnUT-177">
          <mxGeometry y="215" width="120" height="28" as="geometry" />
        </mxCell>
        <mxCell id="jp5eAUPJtN0LZfD-OnUT-186" value="&lt;b&gt;RiskLog&lt;/b&gt;" style="swimlane;fontStyle=0;align=center;verticalAlign=middle;childLayout=stackLayout;horizontal=1;startSize=29;horizontalStack=0;resizeParent=1;resizeParentMax=0;resizeLast=0;collapsible=0;marginBottom=0;html=1;fontSize=12;labelPosition=center;verticalLabelPosition=middle;container=0;strokeColor=default;swimlaneLine=1;rounded=0;shadow=0;glass=0;sketch=0;perimeterSpacing=0;" vertex="1" parent="1">
          <mxGeometry x="581" y="1611" width="120" height="245" as="geometry" />
        </mxCell>
        <mxCell id="jp5eAUPJtN0LZfD-OnUT-187" value="- id: Long" style="text;strokeColor=none;fillColor=none;align=left;verticalAlign=top;spacingLeft=4;spacingRight=4;overflow=hidden;rotatable=0;points=[[0,0.5],[1,0.5]];portConstraint=eastwest;container=0;fontStyle=0" vertex="1" parent="jp5eAUPJtN0LZfD-OnUT-186">
          <mxGeometry y="29" width="120" height="26" as="geometry" />
        </mxCell>
        <mxCell id="jp5eAUPJtN0LZfD-OnUT-188" value="- code: String " style="text;strokeColor=none;fillColor=none;align=left;verticalAlign=top;spacingLeft=4;spacingRight=4;overflow=hidden;rotatable=0;points=[[0,0.5],[1,0.5]];portConstraint=eastwest;container=0;fontStyle=0" vertex="1" parent="jp5eAUPJtN0LZfD-OnUT-186">
          <mxGeometry y="55" width="120" height="26" as="geometry" />
        </mxCell>
        <mxCell id="jp5eAUPJtN0LZfD-OnUT-189" value="- reporterId: uuid" style="text;strokeColor=none;fillColor=none;align=left;verticalAlign=top;spacingLeft=4;spacingRight=4;overflow=hidden;rotatable=0;points=[[0,0.5],[1,0.5]];portConstraint=eastwest;container=0;fontStyle=0" vertex="1" parent="jp5eAUPJtN0LZfD-OnUT-186">
          <mxGeometry y="81" width="120" height="26" as="geometry" />
        </mxCell>
        <mxCell id="jp5eAUPJtN0LZfD-OnUT-190" value="- probability: int" style="text;strokeColor=none;fillColor=none;align=left;verticalAlign=top;spacingLeft=4;spacingRight=4;overflow=hidden;rotatable=0;points=[[0,0.5],[1,0.5]];portConstraint=eastwest;container=0;fontStyle=0" vertex="1" parent="jp5eAUPJtN0LZfD-OnUT-186">
          <mxGeometry y="107" width="120" height="26" as="geometry" />
        </mxCell>
        <mxCell id="jp5eAUPJtN0LZfD-OnUT-191" value="&lt;span style=&quot;color: rgb(0 , 0 , 0) ; font-family: &amp;#34;helvetica&amp;#34; ; font-size: 12px ; font-style: normal ; font-weight: 400 ; letter-spacing: normal ; text-align: left ; text-indent: 0px ; text-transform: none ; word-spacing: 0px ; background-color: rgb(248 , 249 , 250) ; display: inline ; float: none&quot;&gt;- impact: int&lt;/span&gt;" style="text;whiteSpace=wrap;html=1;" vertex="1" parent="jp5eAUPJtN0LZfD-OnUT-186">
          <mxGeometry y="133" width="120" height="28" as="geometry" />
        </mxCell>
        <mxCell id="jp5eAUPJtN0LZfD-OnUT-192" value="&lt;span style=&quot;color: rgb(0 , 0 , 0) ; font-family: &amp;#34;helvetica&amp;#34; ; font-size: 12px ; font-style: normal ; font-weight: 400 ; letter-spacing: normal ; text-align: left ; text-indent: 0px ; text-transform: none ; word-spacing: 0px ; background-color: rgb(248 , 249 , 250) ; display: inline ; float: none&quot;&gt;- taskId: uuid&lt;/span&gt;" style="text;whiteSpace=wrap;html=1;" vertex="1" parent="jp5eAUPJtN0LZfD-OnUT-186">
          <mxGeometry y="161" width="120" height="28" as="geometry" />
        </mxCell>
        <mxCell id="jp5eAUPJtN0LZfD-OnUT-193" value="&lt;span style=&quot;color: rgb(0 , 0 , 0) ; font-family: &amp;#34;helvetica&amp;#34; ; font-size: 12px ; font-style: normal ; font-weight: 400 ; letter-spacing: normal ; text-align: left ; text-indent: 0px ; text-transform: none ; word-spacing: 0px ; background-color: rgb(248 , 249 , 250) ; display: inline ; float: none&quot;&gt;- iterationId: uuid&lt;/span&gt;" style="text;whiteSpace=wrap;html=1;" vertex="1" parent="jp5eAUPJtN0LZfD-OnUT-186">
          <mxGeometry y="189" width="120" height="28" as="geometry" />
        </mxCell>
        <mxCell id="jp5eAUPJtN0LZfD-OnUT-194" value="&lt;span style=&quot;color: rgb(0 , 0 , 0) ; font-family: &amp;#34;helvetica&amp;#34; ; font-size: 12px ; font-style: normal ; font-weight: 400 ; letter-spacing: normal ; text-align: left ; text-indent: 0px ; text-transform: none ; word-spacing: 0px ; background-color: rgb(248 , 249 , 250) ; display: inline ; float: none&quot;&gt;- dealId: uuid&lt;/span&gt;" style="text;whiteSpace=wrap;html=1;" vertex="1" parent="jp5eAUPJtN0LZfD-OnUT-186">
          <mxGeometry y="217" width="120" height="28" as="geometry" />
        </mxCell>
        <mxCell id="jp5eAUPJtN0LZfD-OnUT-53" value="DeliveryActivity" style="swimlane;fontStyle=1;align=center;verticalAlign=middle;childLayout=stackLayout;horizontal=1;startSize=29;horizontalStack=0;resizeParent=1;resizeParentMax=0;resizeLast=0;collapsible=0;marginBottom=0;html=1;fontSize=12;labelPosition=center;verticalLabelPosition=middle;container=0;swimlaneLine=1;rounded=0;sketch=0;glass=0;" vertex="1" parent="1">
          <mxGeometry x="543" y="1118.5" width="158" height="133" as="geometry" />
        </mxCell>
        <mxCell id="jp5eAUPJtN0LZfD-OnUT-54" value="- id: UUID" style="text;strokeColor=none;fillColor=none;align=left;verticalAlign=top;spacingLeft=4;spacingRight=4;overflow=hidden;rotatable=0;points=[[0,0.5],[1,0.5]];portConstraint=eastwest;container=0;fontStyle=0" vertex="1" parent="jp5eAUPJtN0LZfD-OnUT-53">
          <mxGeometry y="29" width="158" height="26" as="geometry" />
        </mxCell>
        <mxCell id="jp5eAUPJtN0LZfD-OnUT-55" value="- clientOrderId:  Long" style="text;strokeColor=none;fillColor=none;align=left;verticalAlign=top;spacingLeft=4;spacingRight=4;overflow=hidden;rotatable=0;points=[[0,0.5],[1,0.5]];portConstraint=eastwest;container=0;fontStyle=0" vertex="1" parent="jp5eAUPJtN0LZfD-OnUT-53">
          <mxGeometry y="55" width="158" height="26" as="geometry" />
        </mxCell>
        <mxCell id="jp5eAUPJtN0LZfD-OnUT-57" value="- averageBudget: Float" style="text;strokeColor=none;fillColor=none;align=left;verticalAlign=top;spacingLeft=4;spacingRight=4;overflow=hidden;rotatable=0;points=[[0,0.5],[1,0.5]];portConstraint=eastwest;container=0;fontStyle=0" vertex="1" parent="jp5eAUPJtN0LZfD-OnUT-53">
          <mxGeometry y="81" width="158" height="26" as="geometry" />
        </mxCell>
        <mxCell id="jp5eAUPJtN0LZfD-OnUT-58" value="- averageProfitMargin: Float" style="text;strokeColor=none;fillColor=none;align=left;verticalAlign=top;spacingLeft=4;spacingRight=4;overflow=hidden;rotatable=0;points=[[0,0.5],[1,0.5]];portConstraint=eastwest;container=0;fontStyle=0" vertex="1" parent="jp5eAUPJtN0LZfD-OnUT-53">
          <mxGeometry y="107" width="158" height="26" as="geometry" />
        </mxCell>
        <mxCell id="jp5eAUPJtN0LZfD-OnUT-248" style="edgeStyle=orthogonalEdgeStyle;rounded=0;orthogonalLoop=1;jettySize=auto;html=1;endArrow=none;endFill=0;startSize=5;endSize=5;" edge="1" parent="1" source="jp5eAUPJtN0LZfD-OnUT-212" target="jp5eAUPJtN0LZfD-OnUT-230">
          <mxGeometry relative="1" as="geometry">
            <Array as="points">
              <mxPoint x="-31" y="1946" />
              <mxPoint x="-31" y="1946" />
            </Array>
          </mxGeometry>
        </mxCell>
        <mxCell id="jp5eAUPJtN0LZfD-OnUT-249" value="*" style="edgeLabel;html=1;align=center;verticalAlign=middle;resizable=0;points=[];" vertex="1" connectable="0" parent="jp5eAUPJtN0LZfD-OnUT-248">
          <mxGeometry x="-0.8966" y="-1" relative="1" as="geometry">
            <mxPoint as="offset" />
          </mxGeometry>
        </mxCell>
        <mxCell id="jp5eAUPJtN0LZfD-OnUT-250" value="1" style="edgeLabel;html=1;align=center;verticalAlign=middle;resizable=0;points=[];" vertex="1" connectable="0" parent="jp5eAUPJtN0LZfD-OnUT-248">
          <mxGeometry x="0.9352" y="-1" relative="1" as="geometry">
            <mxPoint as="offset" />
          </mxGeometry>
        </mxCell>
        <mxCell id="jp5eAUPJtN0LZfD-OnUT-212" value="&lt;b&gt;Task&lt;br&gt;&lt;/b&gt;" style="swimlane;fontStyle=0;align=center;verticalAlign=middle;childLayout=stackLayout;horizontal=1;startSize=29;horizontalStack=0;resizeParent=1;resizeParentMax=0;resizeLast=0;collapsible=0;marginBottom=0;html=1;fontSize=12;labelPosition=center;verticalLabelPosition=middle;container=0;strokeColor=default;swimlaneLine=1;rounded=0;shadow=0;glass=0;sketch=0;perimeterSpacing=0;" vertex="1" parent="1">
          <mxGeometry x="-260" y="1806" width="173" height="367" as="geometry" />
        </mxCell>
        <mxCell id="jp5eAUPJtN0LZfD-OnUT-213" value="- id: UUID" style="text;strokeColor=none;fillColor=none;align=left;verticalAlign=top;spacingLeft=4;spacingRight=4;overflow=hidden;rotatable=0;points=[[0,0.5],[1,0.5]];portConstraint=eastwest;container=0;fontStyle=0" vertex="1" parent="jp5eAUPJtN0LZfD-OnUT-212">
          <mxGeometry y="29" width="173" height="26" as="geometry" />
        </mxCell>
        <mxCell id="jp5eAUPJtN0LZfD-OnUT-214" value="- code : String" style="text;strokeColor=none;fillColor=none;align=left;verticalAlign=top;spacingLeft=4;spacingRight=4;overflow=hidden;rotatable=0;points=[[0,0.5],[1,0.5]];portConstraint=eastwest;container=0;fontStyle=0" vertex="1" parent="jp5eAUPJtN0LZfD-OnUT-212">
          <mxGeometry y="55" width="173" height="26" as="geometry" />
        </mxCell>
        <mxCell id="jp5eAUPJtN0LZfD-OnUT-215" value="- summary: String" style="text;strokeColor=none;fillColor=none;align=left;verticalAlign=top;spacingLeft=4;spacingRight=4;overflow=hidden;rotatable=0;points=[[0,0.5],[1,0.5]];portConstraint=eastwest;container=0;fontStyle=0" vertex="1" parent="jp5eAUPJtN0LZfD-OnUT-212">
          <mxGeometry y="81" width="173" height="26" as="geometry" />
        </mxCell>
        <mxCell id="jp5eAUPJtN0LZfD-OnUT-216" value="- description: String" style="text;strokeColor=none;fillColor=none;align=left;verticalAlign=top;spacingLeft=4;spacingRight=4;overflow=hidden;rotatable=0;points=[[0,0.5],[1,0.5]];portConstraint=eastwest;container=0;fontStyle=0" vertex="1" parent="jp5eAUPJtN0LZfD-OnUT-212">
          <mxGeometry y="107" width="173" height="26" as="geometry" />
        </mxCell>
        <mxCell id="jp5eAUPJtN0LZfD-OnUT-217" value="- toDate: LocalDate" style="text;strokeColor=none;fillColor=none;align=left;verticalAlign=top;spacingLeft=4;spacingRight=4;overflow=hidden;rotatable=0;points=[[0,0.5],[1,0.5]];portConstraint=eastwest;container=0;fontStyle=0" vertex="1" parent="jp5eAUPJtN0LZfD-OnUT-212">
          <mxGeometry y="133" width="173" height="26" as="geometry" />
        </mxCell>
        <mxCell id="jp5eAUPJtN0LZfD-OnUT-218" value="- regime: Float" style="text;strokeColor=none;fillColor=none;align=left;verticalAlign=top;spacingLeft=4;spacingRight=4;overflow=hidden;rotatable=0;points=[[0,0.5],[1,0.5]];portConstraint=eastwest;container=0;fontStyle=0" vertex="1" parent="jp5eAUPJtN0LZfD-OnUT-212">
          <mxGeometry y="159" width="173" height="26" as="geometry" />
        </mxCell>
        <mxCell id="jp5eAUPJtN0LZfD-OnUT-219" value="- dueDate: LocalDate" style="text;strokeColor=none;fillColor=none;align=left;verticalAlign=top;spacingLeft=4;spacingRight=4;overflow=hidden;rotatable=0;points=[[0,0.5],[1,0.5]];portConstraint=eastwest;container=0;fontStyle=0" vertex="1" parent="jp5eAUPJtN0LZfD-OnUT-212">
          <mxGeometry y="185" width="173" height="26" as="geometry" />
        </mxCell>
        <mxCell id="jp5eAUPJtN0LZfD-OnUT-220" value="- deliveryDate: LocalDate" style="text;strokeColor=none;fillColor=none;align=left;verticalAlign=top;spacingLeft=4;spacingRight=4;overflow=hidden;rotatable=0;points=[[0,0.5],[1,0.5]];portConstraint=eastwest;container=0;fontStyle=0" vertex="1" parent="jp5eAUPJtN0LZfD-OnUT-212">
          <mxGeometry y="211" width="173" height="26" as="geometry" />
        </mxCell>
        <mxCell id="jp5eAUPJtN0LZfD-OnUT-221" value="- assignee: UUID" style="text;strokeColor=none;fillColor=none;align=left;verticalAlign=top;spacingLeft=4;spacingRight=4;overflow=hidden;rotatable=0;points=[[0,0.5],[1,0.5]];portConstraint=eastwest;container=0;fontStyle=0" vertex="1" parent="jp5eAUPJtN0LZfD-OnUT-212">
          <mxGeometry y="237" width="173" height="26" as="geometry" />
        </mxCell>
        <mxCell id="jp5eAUPJtN0LZfD-OnUT-224" value="- estimation: Float" style="text;strokeColor=none;fillColor=none;align=left;verticalAlign=top;spacingLeft=4;spacingRight=4;overflow=hidden;rotatable=0;points=[[0,0.5],[1,0.5]];portConstraint=eastwest;container=0;fontStyle=0" vertex="1" parent="jp5eAUPJtN0LZfD-OnUT-212">
          <mxGeometry y="263" width="173" height="26" as="geometry" />
        </mxCell>
        <mxCell id="jp5eAUPJtN0LZfD-OnUT-225" value="- businessUnit: UUID" style="text;strokeColor=none;fillColor=none;align=left;verticalAlign=top;spacingLeft=4;spacingRight=4;overflow=hidden;rotatable=0;points=[[0,0.5],[1,0.5]];portConstraint=eastwest;container=0;fontStyle=0" vertex="1" parent="jp5eAUPJtN0LZfD-OnUT-212">
          <mxGeometry y="289" width="173" height="26" as="geometry" />
        </mxCell>
        <mxCell id="jp5eAUPJtN0LZfD-OnUT-228" value="- notes: String" style="text;strokeColor=none;fillColor=none;align=left;verticalAlign=top;spacingLeft=4;spacingRight=4;overflow=hidden;rotatable=0;points=[[0,0.5],[1,0.5]];portConstraint=eastwest;container=0;fontStyle=0" vertex="1" parent="jp5eAUPJtN0LZfD-OnUT-212">
          <mxGeometry y="315" width="173" height="26" as="geometry" />
        </mxCell>
        <mxCell id="jp5eAUPJtN0LZfD-OnUT-229" value="- order: Int" style="text;strokeColor=none;fillColor=none;align=left;verticalAlign=top;spacingLeft=4;spacingRight=4;overflow=hidden;rotatable=0;points=[[0,0.5],[1,0.5]];portConstraint=eastwest;container=0;fontStyle=0" vertex="1" parent="jp5eAUPJtN0LZfD-OnUT-212">
          <mxGeometry y="341" width="173" height="26" as="geometry" />
        </mxCell>
        <mxCell id="jp5eAUPJtN0LZfD-OnUT-245" style="edgeStyle=orthogonalEdgeStyle;rounded=0;orthogonalLoop=1;jettySize=auto;html=1;endArrow=none;endFill=0;startSize=5;endSize=5;" edge="1" parent="1" source="jp5eAUPJtN0LZfD-OnUT-230" target="jp5eAUPJtN0LZfD-OnUT-53">
          <mxGeometry relative="1" as="geometry">
            <Array as="points">
              <mxPoint x="734" y="1884" />
              <mxPoint x="734" y="1185" />
            </Array>
          </mxGeometry>
        </mxCell>
        <mxCell id="jp5eAUPJtN0LZfD-OnUT-246" value="1" style="edgeLabel;html=1;align=center;verticalAlign=middle;resizable=0;points=[];" vertex="1" connectable="0" parent="jp5eAUPJtN0LZfD-OnUT-245">
          <mxGeometry x="0.9892" relative="1" as="geometry">
            <mxPoint x="1" as="offset" />
          </mxGeometry>
        </mxCell>
        <mxCell id="jp5eAUPJtN0LZfD-OnUT-247" value="*" style="edgeLabel;html=1;align=center;verticalAlign=middle;resizable=0;points=[];" vertex="1" connectable="0" parent="jp5eAUPJtN0LZfD-OnUT-245">
          <mxGeometry x="-0.9849" relative="1" as="geometry">
            <mxPoint as="offset" />
          </mxGeometry>
        </mxCell>
        <mxCell id="jp5eAUPJtN0LZfD-OnUT-230" value="&lt;b&gt;Iteration&lt;/b&gt;" style="swimlane;fontStyle=0;align=center;verticalAlign=middle;childLayout=stackLayout;horizontal=1;startSize=29;horizontalStack=0;resizeParent=1;resizeParentMax=0;resizeLast=0;collapsible=0;marginBottom=0;html=1;fontSize=12;labelPosition=center;verticalLabelPosition=middle;container=0;strokeColor=default;swimlaneLine=1;rounded=0;shadow=0;glass=0;sketch=0;perimeterSpacing=0;" vertex="1" parent="1">
          <mxGeometry x="108" y="1601" width="173" height="393" as="geometry" />
        </mxCell>
        <mxCell id="jp5eAUPJtN0LZfD-OnUT-231" value="- id: UUID" style="text;strokeColor=none;fillColor=none;align=left;verticalAlign=top;spacingLeft=4;spacingRight=4;overflow=hidden;rotatable=0;points=[[0,0.5],[1,0.5]];portConstraint=eastwest;container=0;fontStyle=0" vertex="1" parent="jp5eAUPJtN0LZfD-OnUT-230">
          <mxGeometry y="29" width="173" height="26" as="geometry" />
        </mxCell>
        <mxCell id="jp5eAUPJtN0LZfD-OnUT-232" value="- code : String" style="text;strokeColor=none;fillColor=none;align=left;verticalAlign=top;spacingLeft=4;spacingRight=4;overflow=hidden;rotatable=0;points=[[0,0.5],[1,0.5]];portConstraint=eastwest;container=0;fontStyle=0" vertex="1" parent="jp5eAUPJtN0LZfD-OnUT-230">
          <mxGeometry y="55" width="173" height="26" as="geometry" />
        </mxCell>
        <mxCell id="jp5eAUPJtN0LZfD-OnUT-233" value="- summary: String" style="text;strokeColor=none;fillColor=none;align=left;verticalAlign=top;spacingLeft=4;spacingRight=4;overflow=hidden;rotatable=0;points=[[0,0.5],[1,0.5]];portConstraint=eastwest;container=0;fontStyle=0" vertex="1" parent="jp5eAUPJtN0LZfD-OnUT-230">
          <mxGeometry y="81" width="173" height="26" as="geometry" />
        </mxCell>
        <mxCell id="jp5eAUPJtN0LZfD-OnUT-234" value="- description: String" style="text;strokeColor=none;fillColor=none;align=left;verticalAlign=top;spacingLeft=4;spacingRight=4;overflow=hidden;rotatable=0;points=[[0,0.5],[1,0.5]];portConstraint=eastwest;container=0;fontStyle=0" vertex="1" parent="jp5eAUPJtN0LZfD-OnUT-230">
          <mxGeometry y="107" width="173" height="26" as="geometry" />
        </mxCell>
        <mxCell id="jp5eAUPJtN0LZfD-OnUT-235" value="- number: Int" style="text;strokeColor=none;fillColor=none;align=left;verticalAlign=top;spacingLeft=4;spacingRight=4;overflow=hidden;rotatable=0;points=[[0,0.5],[1,0.5]];portConstraint=eastwest;container=0;fontStyle=0" vertex="1" parent="jp5eAUPJtN0LZfD-OnUT-230">
          <mxGeometry y="133" width="173" height="26" as="geometry" />
        </mxCell>
        <mxCell id="jp5eAUPJtN0LZfD-OnUT-236" value="- plannedStartDate: LocalDate" style="text;strokeColor=none;fillColor=none;align=left;verticalAlign=top;spacingLeft=4;spacingRight=4;overflow=hidden;rotatable=0;points=[[0,0.5],[1,0.5]];portConstraint=eastwest;container=0;fontStyle=0" vertex="1" parent="jp5eAUPJtN0LZfD-OnUT-230">
          <mxGeometry y="159" width="173" height="26" as="geometry" />
        </mxCell>
        <mxCell id="jp5eAUPJtN0LZfD-OnUT-237" value="- plannedEndDate : LocalDate" style="text;strokeColor=none;fillColor=none;align=left;verticalAlign=top;spacingLeft=4;spacingRight=4;overflow=hidden;rotatable=0;points=[[0,0.5],[1,0.5]];portConstraint=eastwest;container=0;fontStyle=0" vertex="1" parent="jp5eAUPJtN0LZfD-OnUT-230">
          <mxGeometry y="185" width="173" height="26" as="geometry" />
        </mxCell>
        <mxCell id="jp5eAUPJtN0LZfD-OnUT-238" value="- startDate: LocalDate" style="text;strokeColor=none;fillColor=none;align=left;verticalAlign=top;spacingLeft=4;spacingRight=4;overflow=hidden;rotatable=0;points=[[0,0.5],[1,0.5]];portConstraint=eastwest;container=0;fontStyle=0" vertex="1" parent="jp5eAUPJtN0LZfD-OnUT-230">
          <mxGeometry y="211" width="173" height="26" as="geometry" />
        </mxCell>
        <mxCell id="jp5eAUPJtN0LZfD-OnUT-239" value="- deliveryDate: LocalDate" style="text;strokeColor=none;fillColor=none;align=left;verticalAlign=top;spacingLeft=4;spacingRight=4;overflow=hidden;rotatable=0;points=[[0,0.5],[1,0.5]];portConstraint=eastwest;container=0;fontStyle=0" vertex="1" parent="jp5eAUPJtN0LZfD-OnUT-230">
          <mxGeometry y="237" width="173" height="26" as="geometry" />
        </mxCell>
        <mxCell id="jp5eAUPJtN0LZfD-OnUT-240" value="- budget: Double" style="text;strokeColor=none;fillColor=none;align=left;verticalAlign=top;spacingLeft=4;spacingRight=4;overflow=hidden;rotatable=0;points=[[0,0.5],[1,0.5]];portConstraint=eastwest;container=0;fontStyle=0" vertex="1" parent="jp5eAUPJtN0LZfD-OnUT-230">
          <mxGeometry y="263" width="173" height="26" as="geometry" />
        </mxCell>
        <mxCell id="jp5eAUPJtN0LZfD-OnUT-241" value="- averageCost: Double" style="text;strokeColor=none;fillColor=none;align=left;verticalAlign=top;spacingLeft=4;spacingRight=4;overflow=hidden;rotatable=0;points=[[0,0.5],[1,0.5]];portConstraint=eastwest;container=0;fontStyle=0" vertex="1" parent="jp5eAUPJtN0LZfD-OnUT-230">
          <mxGeometry y="289" width="173" height="26" as="geometry" />
        </mxCell>
        <mxCell id="jp5eAUPJtN0LZfD-OnUT-242" value="- averageProfitMargin: Float" style="text;strokeColor=none;fillColor=none;align=left;verticalAlign=top;spacingLeft=4;spacingRight=4;overflow=hidden;rotatable=0;points=[[0,0.5],[1,0.5]];portConstraint=eastwest;container=0;fontStyle=0" vertex="1" parent="jp5eAUPJtN0LZfD-OnUT-230">
          <mxGeometry y="315" width="173" height="26" as="geometry" />
        </mxCell>
        <mxCell id="jp5eAUPJtN0LZfD-OnUT-243" value="- order: Integer" style="text;strokeColor=none;fillColor=none;align=left;verticalAlign=top;spacingLeft=4;spacingRight=4;overflow=hidden;rotatable=0;points=[[0,0.5],[1,0.5]];portConstraint=eastwest;container=0;fontStyle=0" vertex="1" parent="jp5eAUPJtN0LZfD-OnUT-230">
          <mxGeometry y="341" width="173" height="26" as="geometry" />
        </mxCell>
        <mxCell id="jp5eAUPJtN0LZfD-OnUT-244" value="- orderPhaseId: UUID" style="text;strokeColor=none;fillColor=none;align=left;verticalAlign=top;spacingLeft=4;spacingRight=4;overflow=hidden;rotatable=0;points=[[0,0.5],[1,0.5]];portConstraint=eastwest;container=0;fontStyle=0" vertex="1" parent="jp5eAUPJtN0LZfD-OnUT-230">
          <mxGeometry y="367" width="173" height="26" as="geometry" />
        </mxCell>
        <mxCell id="jp5eAUPJtN0LZfD-OnUT-262" style="edgeStyle=orthogonalEdgeStyle;rounded=0;orthogonalLoop=1;jettySize=auto;html=1;endArrow=none;endFill=0;startSize=5;endSize=5;" edge="1" parent="1" source="jp5eAUPJtN0LZfD-OnUT-255" target="jp5eAUPJtN0LZfD-OnUT-230">
          <mxGeometry relative="1" as="geometry">
            <Array as="points">
              <mxPoint x="836" y="1924" />
            </Array>
          </mxGeometry>
        </mxCell>
        <mxCell id="jp5eAUPJtN0LZfD-OnUT-263" value="*" style="edgeLabel;html=1;align=center;verticalAlign=middle;resizable=0;points=[];" vertex="1" connectable="0" parent="jp5eAUPJtN0LZfD-OnUT-262">
          <mxGeometry x="0.9668" relative="1" as="geometry">
            <mxPoint x="-2" as="offset" />
          </mxGeometry>
        </mxCell>
        <mxCell id="jp5eAUPJtN0LZfD-OnUT-264" value="1" style="edgeLabel;html=1;align=center;verticalAlign=middle;resizable=0;points=[];" vertex="1" connectable="0" parent="jp5eAUPJtN0LZfD-OnUT-262">
          <mxGeometry x="-0.9674" y="1" relative="1" as="geometry">
            <mxPoint x="-2" as="offset" />
          </mxGeometry>
        </mxCell>
        <mxCell id="jp5eAUPJtN0LZfD-OnUT-265" style="edgeStyle=orthogonalEdgeStyle;rounded=0;orthogonalLoop=1;jettySize=auto;html=1;endArrow=none;endFill=0;startSize=5;endSize=5;" edge="1" parent="1" source="jp5eAUPJtN0LZfD-OnUT-255" target="jp5eAUPJtN0LZfD-OnUT-53">
          <mxGeometry relative="1" as="geometry">
            <Array as="points">
              <mxPoint x="826" y="1160" />
            </Array>
          </mxGeometry>
        </mxCell>
        <mxCell id="jp5eAUPJtN0LZfD-OnUT-266" value="1" style="edgeLabel;html=1;align=center;verticalAlign=middle;resizable=0;points=[];" vertex="1" connectable="0" parent="jp5eAUPJtN0LZfD-OnUT-265">
          <mxGeometry x="0.9701" y="2" relative="1" as="geometry">
            <mxPoint x="-1" y="-3" as="offset" />
          </mxGeometry>
        </mxCell>
        <mxCell id="jp5eAUPJtN0LZfD-OnUT-267" value="*" style="edgeLabel;html=1;align=center;verticalAlign=middle;resizable=0;points=[];" vertex="1" connectable="0" parent="jp5eAUPJtN0LZfD-OnUT-265">
          <mxGeometry x="-0.9754" y="1" relative="1" as="geometry">
            <mxPoint y="-4" as="offset" />
          </mxGeometry>
        </mxCell>
        <mxCell id="jp5eAUPJtN0LZfD-OnUT-255" value="Retrospective" style="swimlane;fontStyle=1;align=center;verticalAlign=middle;childLayout=stackLayout;horizontal=1;startSize=29;horizontalStack=0;resizeParent=1;resizeParentMax=0;resizeLast=0;collapsible=0;marginBottom=0;html=1;fontSize=12;labelPosition=center;verticalLabelPosition=middle;container=0;swimlaneLine=1;rounded=0;sketch=0;glass=0;" vertex="1" parent="1">
          <mxGeometry x="752" y="1611" width="173" height="185" as="geometry" />
        </mxCell>
        <mxCell id="jp5eAUPJtN0LZfD-OnUT-256" value="- id: UUID" style="text;strokeColor=none;fillColor=none;align=left;verticalAlign=top;spacingLeft=4;spacingRight=4;overflow=hidden;rotatable=0;points=[[0,0.5],[1,0.5]];portConstraint=eastwest;container=0;fontStyle=0" vertex="1" parent="jp5eAUPJtN0LZfD-OnUT-255">
          <mxGeometry y="29" width="173" height="26" as="geometry" />
        </mxCell>
        <mxCell id="jp5eAUPJtN0LZfD-OnUT-257" value="- reporter: UUID" style="text;strokeColor=none;fillColor=none;align=left;verticalAlign=top;spacingLeft=4;spacingRight=4;overflow=hidden;rotatable=0;points=[[0,0.5],[1,0.5]];portConstraint=eastwest;container=0;fontStyle=0" vertex="1" parent="jp5eAUPJtN0LZfD-OnUT-255">
          <mxGeometry y="55" width="173" height="26" as="geometry" />
        </mxCell>
        <mxCell id="jp5eAUPJtN0LZfD-OnUT-258" value="- date : LocalDate" style="text;strokeColor=none;fillColor=none;align=left;verticalAlign=top;spacingLeft=4;spacingRight=4;overflow=hidden;rotatable=0;points=[[0,0.5],[1,0.5]];portConstraint=eastwest;container=0;fontStyle=0" vertex="1" parent="jp5eAUPJtN0LZfD-OnUT-255">
          <mxGeometry y="81" width="173" height="26" as="geometry" />
        </mxCell>
        <mxCell id="jp5eAUPJtN0LZfD-OnUT-259" value="- subject: String" style="text;strokeColor=none;fillColor=none;align=left;verticalAlign=top;spacingLeft=4;spacingRight=4;overflow=hidden;rotatable=0;points=[[0,0.5],[1,0.5]];portConstraint=eastwest;container=0;fontStyle=0" vertex="1" parent="jp5eAUPJtN0LZfD-OnUT-255">
          <mxGeometry y="107" width="173" height="26" as="geometry" />
        </mxCell>
        <mxCell id="jp5eAUPJtN0LZfD-OnUT-260" value="- proposition: String" style="text;strokeColor=none;fillColor=none;align=left;verticalAlign=top;spacingLeft=4;spacingRight=4;overflow=hidden;rotatable=0;points=[[0,0.5],[1,0.5]];portConstraint=eastwest;container=0;fontStyle=0" vertex="1" parent="jp5eAUPJtN0LZfD-OnUT-255">
          <mxGeometry y="133" width="173" height="26" as="geometry" />
        </mxCell>
        <mxCell id="jp5eAUPJtN0LZfD-OnUT-261" value="- limit: Float" style="text;strokeColor=none;fillColor=none;align=left;verticalAlign=top;spacingLeft=4;spacingRight=4;overflow=hidden;rotatable=0;points=[[0,0.5],[1,0.5]];portConstraint=eastwest;container=0;fontStyle=0" vertex="1" parent="jp5eAUPJtN0LZfD-OnUT-255">
          <mxGeometry y="159" width="173" height="26" as="geometry" />
        </mxCell>
      </root>
    </mxGraphModel>
  </diagram>
</mxfile>
